<svg width="251" height="194" viewBox="0 0 251 194" fill="none" xmlns="http://www.w3.org/2000/svg">
<g clip-path="url(#clip0)">
<path fill-rule="evenodd" clip-rule="evenodd" d="M63.2121 116.226C64.4886 115.356 67.0988 112.242 68.4664 111.522C71.5074 109.922 85.0552 106.776 85.4956 106.59C86.1665 106.307 90.5249 105.318 93.0642 104.693C99.0269 103.226 120.395 93.7472 126.027 91.3169C126.746 93.2089 132.682 101.561 131.664 102.417C128.311 105.235 122.302 108.744 118.419 110.763C115.278 112.396 111.951 113.748 108.593 114.852C104.779 116.105 102.162 117.448 98.362 118.73C94.6232 119.991 99.0914 123.936 101.012 124.751C103.165 125.665 106.501 126.129 108.702 126.921C104.827 132.943 101.573 140.251 100.922 147.465C100.766 149.2 99.4425 150.792 97.29 150.272C96.1794 150.004 85.9311 148.639 84.2601 148.258C73.1044 145.714 53.0778 132.391 58.235 118.73C59.4164 119.276 62.1138 116.974 63.2121 116.226Z" fill="#FF5678"/>
<path fill-rule="evenodd" clip-rule="evenodd" d="M69.4532 43.7446C70.2866 43.6744 72.4415 42.0096 71.3107 41.1675C70.1701 40.3181 69.3504 43.165 69.4532 43.7446ZM26.0405 50.1294C26.2584 50.0909 26.1633 48.8989 25.8204 48.7466C24.7377 48.2659 24.6464 50.0723 24.6199 50.5557C24.5871 51.1656 24.5105 52.884 25.827 52.4129C26.5742 52.1455 26.1105 50.5866 26.0405 50.1294ZM89.95 55.6987C89.9208 56.7628 92.0706 58.8089 92.8719 57.5816C93.5461 56.5503 90.0053 53.5804 89.95 55.6987ZM13.9437 31.6996C14.5666 33.2886 17.647 31.1232 17.7616 29.9577C17.9964 27.5709 13.9115 30.1116 13.9437 31.6996ZM39.6434 38.55C41.078 38.4321 42.9656 36.6083 44.349 35.9269C45.2851 35.466 47.8324 34.9164 48.1094 33.8696C48.3505 32.96 44.0286 34.9069 43.6595 35.0799C41.9641 35.8742 40.4355 36.7797 39.6434 38.55ZM147.337 25.9734C148.48 25.0892 149.87 24.5189 151.336 24.5563C152.068 24.5749 153.595 25.0329 153.652 23.767C153.746 21.7088 147.281 24.219 146.271 24.6228C146.626 25.0733 146.982 25.5234 147.337 25.9734ZM76.0062 106.187C75.1674 104.794 73.6587 103.988 72.5241 102.8C72.9399 104.751 72.0024 106.487 71.3583 108.268C72.9079 107.574 74.4568 106.88 76.0062 106.187ZM221.677 135.882C222.14 134.335 222.603 132.796 223.143 131.273C223.748 129.567 224.049 129.419 222.601 128.226C221.4 130.497 220.198 132.768 218.996 135.039C219.852 135.403 220.745 135.757 221.677 135.882ZM97.3317 23.8859C95.741 22.093 88.2858 21.9803 89.2083 25.9376C89.5304 27.3194 91.3633 25.8514 92.5113 25.5294C93.6508 25.2095 96.8775 25.1671 97.3317 23.8859ZM97.0583 49.2715C96.8655 48.8138 96.4806 47.1622 95.9091 47.0321C95.3525 46.9052 93.156 48.6375 92.7431 48.9019C90.6836 50.2216 88.676 51.6414 86.6689 53.0404C87.4375 53.0404 88.1352 52.7667 88.8991 52.761C89.8068 52.753 90.4577 53.126 91.3428 52.9132C93.2443 52.4567 95.4512 50.3495 97.0583 49.2715ZM99.1189 8.35803C99.2974 7.5379 108.618 9.99984 109.738 10.4507C110.349 10.6958 113.498 12.3327 112.821 9.86571C112.436 8.46064 108.797 7.38955 107.631 7.00446C104.667 6.02597 101.541 5.32997 98.3846 5.49139C97.7716 5.5225 93.1295 5.79038 95.0679 7.65625C95.7358 8.29883 98.13 8.0963 99.1189 8.35803ZM101.159 121.039C102.896 121.894 104.669 122.547 106.484 123.216C107.29 123.512 108.547 124.289 109.436 124.094C110.165 123.934 110.398 122.825 110.781 122.082C112.18 119.365 113.851 117.173 115.923 114.933C114.961 114.231 110.077 117.326 108.869 117.783C107.659 118.24 106.518 118.701 105.334 119.248C104.219 119.762 102.02 120.222 101.159 121.039ZM131.907 97.8786C134.438 96.7333 136.837 94.7025 138.913 92.8841C141.296 90.7964 143.433 88.6083 145.177 85.9065C144.127 85.9601 141.81 89.3372 141.784 85.6605C141.77 83.7849 144.34 81.9375 145.138 80.1979C143.154 79.0775 141.335 85.772 139.058 84.1494C136.865 82.5858 140.326 77.2098 140.992 75.5136C139.706 74.6576 132.375 84.2393 131.314 85.4653C130.651 86.2327 129.081 87.2544 128.707 88.1496C128.484 88.6827 128.452 90.3737 128.56 90.8639C128.784 91.8889 129.921 93.1165 130.427 94.0709C131.068 95.2794 131.626 96.5351 131.907 97.8786ZM236.537 132.424C234.348 129.335 236.609 127.987 238.389 125.423C239.812 123.372 241.121 121.111 242.024 118.821C244.28 113.092 246.316 107.766 247.43 101.706C245.897 102.406 244.938 105.071 244.171 106.475C243.139 108.362 242.232 110.343 241.085 112.172C238.939 115.594 236.833 119.245 234.103 122.211C232.867 123.555 231.82 125.067 230.393 126.278C229.741 126.832 228.494 127.286 228.014 127.978C227.561 128.631 228.068 129.049 227.895 129.829C227.719 130.629 226.909 131.483 226.562 132.254C226.105 133.266 225.68 134.281 225.171 135.271C224.615 136.351 224.463 136.915 224.314 137.97C224.15 139.124 224.652 139.244 223.644 140.307C225.47 141.112 227.296 141.917 229.121 142.722C229.737 142.994 230.354 143.265 230.97 143.537C231.1 143.293 231.23 143.05 231.359 142.807C231.861 142.319 232.323 141.118 232.609 140.474C233.809 137.788 235.164 135.091 236.537 132.424ZM60.2365 119.455C55.0525 133.103 73.2691 144.595 84.4828 147.137C86.036 147.489 87.5517 147.949 89.0978 148.327C90.7836 148.739 92.2805 148.657 93.9633 148.83C95.3019 148.967 95.94 150.001 97.2015 150.286C99.3095 150.763 99.1807 149.178 99.3316 147.481C99.9717 140.284 103.645 133.339 107.532 127.334C105.757 126.698 103.997 126.005 102.244 125.31C100.744 124.714 98.4469 123.04 96.8341 122.952C95.6415 122.887 93.8239 123.905 92.6655 124.352C90.7364 125.097 88.8015 125.731 86.7909 126.238C83.2749 127.126 79.3625 128.336 75.7243 128.428C74.6752 128.454 71.7979 128.943 71.0433 128.295C69.6041 127.058 71.6016 126.028 72.8065 125.587C79.9875 122.957 87.6119 121.839 94.8131 119.143C98.5188 117.756 102.186 116.207 105.915 114.84C109.13 113.661 112.496 112.618 115.603 111.169C119.705 109.256 123.825 106.872 127.377 104.064C128.089 103.502 129.578 102.668 130.066 101.853C130.495 101.137 130.441 101.851 130.352 100.982C130.288 100.358 129.524 99.5119 129.21 98.9222C128.039 96.7232 126.981 94.4644 126.092 92.1371C120.425 94.5677 115.034 97.8759 109.451 100.473C103.832 103.088 97.4927 104.932 91.4808 106.403C88.922 107.029 85.9805 107.227 83.6339 108.464C82.6368 108.99 81.6511 109.598 80.5832 109.902C80.2677 110.507 79.9574 110.626 79.6515 110.258C79.4598 110.042 79.2121 109.952 78.9081 109.985C78.2549 110.096 77.5886 110.404 76.9778 110.641C73.8859 111.84 70.9252 113.341 67.99 114.872C66.5986 115.598 65.1714 116.312 63.84 117.141C63.1264 117.585 62.4869 118.033 61.9029 118.643C61.2027 119.374 61.3695 119.976 60.2365 119.455ZM176.887 38.4215C178.197 38.4428 179.391 37.733 180.757 37.7727C182.905 37.8347 184.606 39.5003 185.852 41.1066C188.32 44.2846 187.691 48.1186 186.451 51.6753C185.858 53.375 185.044 55.0067 184.027 56.4946C183.126 57.8118 181.516 59.0577 180.888 60.5243C179.851 62.9431 181.943 61.9145 183.223 61.3981C184.833 60.7479 186.342 59.94 187.709 58.8516C193.8 54.0008 198.433 47.2584 199.985 39.5151C200.742 35.7372 200.684 31.3206 198.052 28.2372C195.646 25.4176 191.493 24.4965 187.942 25.0192C184.104 25.5846 180.626 27.2103 177.501 29.3026C176.593 29.9107 175.762 30.5745 174.91 31.2545C173.792 32.1466 173.122 32.1698 173.402 33.568C173.609 34.6075 174.175 35.6847 174.54 36.6821C175.223 38.5502 174.974 39.0336 176.887 38.4215ZM181.064 70.6287L180.798 71.0818C182.626 71.1687 184.328 69.5567 185.885 68.7699C187.907 67.7471 189.703 66.3519 191.476 64.943C194.601 62.4581 197.768 59.6576 200.094 56.3953C205.31 49.0826 210.048 39.8112 208.624 30.5395C207.091 20.5469 198.35 16.7003 189.037 18.0231C184.84 18.6192 181.093 20.493 177.337 22.3954C175.444 23.3542 173.846 24.5984 172.112 25.8025C171.212 26.4278 170.39 26.509 170.332 27.6021C170.287 28.4258 171.711 30.2888 172.096 31.0352C176.812 26.2244 181.895 22.2444 189.017 21.9984C197.489 21.7058 202.5 29.7395 202.462 37.4326C202.426 44.9771 199.172 52.2344 193.985 57.6565C191.627 60.1207 189.38 62.098 186.485 63.8964C185.042 64.7929 183.977 65.5978 182.364 66.193C181.223 66.6143 181.342 66.3923 181.051 67.4488C180.803 68.3453 181.056 69.6978 181.064 70.6287ZM135.025 173.131C134.914 174.49 134.638 175.829 134.331 177.155C134.22 177.631 133.598 179.135 133.707 179.67C133.887 180.555 133.648 179.986 134.423 180.447C135.232 180.929 136.173 180.9 137.059 181.047C137.605 181.137 139.608 182.08 139.945 181.931C140.534 181.671 140.515 180.753 141.161 180.389C142.042 179.894 143.339 180.318 144.169 180.706C146.39 181.742 147.915 183.885 150.063 185.059C153.878 187.143 158.405 188.296 162.661 188.772C164.967 189.03 167.327 189.482 169.604 188.942C171.398 188.516 173.73 188.556 174.705 186.63C166.038 184.247 152.809 181.33 149.382 171.384C147.519 173.073 144.406 172.163 142.155 171.93C139.678 171.673 137.465 171.733 135.199 170.604C135.034 171.492 134.983 172.228 135.025 173.131ZM58.2855 111.528C62.3655 111.774 66.2336 109.843 68.7443 106.586C69.3624 105.783 69.9962 104.964 70.3672 104.014C70.4479 103.773 70.528 103.532 70.6084 103.291C70.998 102.626 70.8273 102.312 70.0971 102.349C69.6856 101.785 68.6423 101.595 68.9392 100.572C69.1626 99.8009 69.9874 99.7884 70.7043 99.5456C70.3472 98.9457 70.1337 98.6447 69.6227 98.1113C68.2948 99.3058 65.8848 101.651 64.9516 98.9061C64.5032 97.5885 65.2923 96.3292 65.0968 95.0585C65.0164 94.5327 64.3501 93.19 63.9638 92.8759C61.907 91.2013 58.9447 91.8944 56.7624 92.88C55.2584 93.5594 54.9347 93.8782 54.6894 95.4355C54.4403 97.019 54.209 98.6021 53.9326 100.181C54.8351 99.7107 54.9994 98.6947 55.5881 97.9631C55.8084 98.3645 56.0291 98.7664 56.2503 99.1677C56.5609 98.9936 56.8509 99.0026 57.12 99.1956C57.5555 99.8652 57.2815 100.858 57.1476 101.56C58.5999 101.425 59.2137 103.045 57.7496 103.701C56.233 104.381 55.549 102.528 55.4976 101.327C54.9316 102.003 54.3504 101.641 53.9559 101.989C53.5619 102.336 53.4066 103.06 53.2663 103.852C53.0359 105.154 52.4461 107.033 52.9918 108.34C53.8019 110.28 56.3848 111.29 58.2855 111.528ZM176.512 49.2059C175.163 51.0834 172.861 53.541 172.379 55.8091C173.866 54.9367 177.01 50.738 177.82 54.0826C178.285 56.0024 175.901 58.29 175.315 60.1489C177.66 59.3773 179.33 56.961 180.793 55.0961C182.659 52.7183 184.564 49.584 185.04 46.5604C185.425 44.1137 183.728 41.8333 181.206 41.5935C179.918 41.471 178.573 41.6755 177.328 41.9744C176.76 42.1102 175.914 42.2792 175.407 42.5832C174.771 42.9652 174.684 43.8592 174.085 43.1155C173.289 44.6157 172.493 46.1159 171.698 47.6155C172.49 47.3282 174.106 46.1082 174.972 46.2343C176.236 46.4188 176.496 48.255 176.512 49.2059ZM50.1096 12.4794C46.5704 12.5837 42.871 13.3374 39.5204 14.4577C38.6884 14.7362 35.1782 15.7265 35.9175 17.1621C36.4061 18.111 39.0403 16.7701 39.8367 16.5465C43.2499 15.588 46.7642 14.9559 50.2603 14.3791C51.1067 14.2395 53.9783 14.2533 54.1265 13.1437C54.308 11.7897 51.1092 12.4778 50.1096 12.4794ZM146.433 166.904C144.515 167.138 142.673 167.051 140.753 166.816C139.137 166.618 137.491 165.956 135.883 165.956C135.883 167.677 135.767 167.688 137.582 168.057C138.85 168.314 140.136 168.458 141.416 168.637C143.672 168.953 146.175 169.838 148.458 169.383C148.403 169.084 148.228 167.067 147.992 166.868C147.858 166.756 146.627 166.906 146.433 166.904ZM115.429 39.5553C115.965 39.897 117.198 41.2599 117.837 41.284C117.609 39.7062 115.849 36.959 113.827 37.934C113.332 38.1732 112.291 39.3636 112.762 39.8888C113.013 40.1696 114.771 39.5572 115.429 39.5553ZM96.7253 53.5918C96.7447 53.3168 96.7646 53.0417 96.7849 52.767C96.0431 53.2031 95.1248 53.4095 94.5976 54.1121C95.2306 54.3926 95.8629 54.6734 96.4961 54.9542C96.5724 54.5001 96.649 54.046 96.7253 53.5918ZM155.145 95.4822C158.65 96.7095 161.863 98.3489 164.443 101.131C166.673 103.538 167.721 107.777 168.265 110.931C169.612 118.736 167.013 125.97 165.299 133.436C164.43 137.223 163.132 140.868 161.917 144.557C160.855 147.779 159.946 151.153 158.481 154.217C157.239 156.814 155.653 159.375 154.56 162.07C153.972 163.52 153.019 168.497 150.788 166.934C150.179 168.526 150.031 168.39 150.682 169.496C151.153 170.297 152.751 171.408 153.506 172.06C155.515 173.798 158.06 175.23 160.418 176.447C164.736 178.675 169.365 180.343 173.812 182.374C175.778 183.273 177.91 184.335 177.469 186.907C177.099 189.063 175.852 190.698 173.906 191.657C172.079 192.558 169.466 193.253 167.456 193.536C166.264 193.704 165.991 193.207 165.018 193.036C163.936 192.845 162.674 193.214 161.558 193.204C156.547 193.161 152.16 191.9 148.111 188.995C146.664 187.956 144.535 185.14 142.641 185.14C141.673 185.14 141.877 185.728 141.026 186.073C139.975 186.498 138.165 185.695 137.132 185.507C134.931 185.105 132.693 184.697 131.228 182.801C129.644 180.753 130.207 178.216 130.888 175.941C131.655 173.377 132.946 170.775 133.495 168.172C133.629 167.539 133.752 166.359 133.616 165.715C133.405 164.715 132.396 164.119 132.366 163.036C132.356 162.707 132.827 162.273 132.91 161.933C133.092 161.187 133.064 160.412 133.139 159.653C133.272 158.298 133.581 157 133.794 155.661C134.279 152.614 135.234 149.895 136.159 146.96C137.057 144.11 137.911 141.99 139.646 139.522C140.544 138.245 143.549 133.692 142.081 132.382C140.073 136.327 137.725 139.403 134.651 142.544C132.301 144.946 130.003 148.175 127.061 149.885C123.826 151.766 119.873 152.873 116.301 153.867C114.602 154.34 113.192 155.389 111.361 155.583C109.376 155.793 107.356 155.545 105.412 155.103C104.864 154.978 103.286 154.137 102.791 154.191C102.062 154.27 101.012 155.57 100.212 155.809C98.2632 156.39 96.9325 155.28 95.4545 154.254C93.8504 153.14 93.3651 152.863 91.5142 152.729C89.2471 152.565 87.0424 151.766 84.8125 151.277C80.8919 150.417 77.5594 148.674 73.9958 146.849C69.9109 144.757 66.4168 141.873 63.3377 138.466C58.8115 133.457 52.5079 119.577 59.9019 114.717C55.549 114.126 51.5625 112.225 51.0318 107.299C50.7546 104.721 51.2765 101.865 51.9247 99.3802C52.2206 98.2455 52.5733 97.118 52.9112 95.9951C53.1657 95.6159 53.3005 95.2012 53.3145 94.7501C53.4706 94.1658 53.2456 93.8746 52.6389 93.8774C51.4925 92.5369 50.6305 91.3536 50.3989 89.4501C50.3259 88.847 50.2605 87.9224 50.6898 87.4094C50.8883 87.2033 51.128 87.0655 51.4077 86.9963C52.0798 87.0349 52.2695 86.7038 51.9775 86.0036C52.3037 85.0117 51.8198 84.2388 53.0493 83.8248C53.4432 83.9085 53.8356 84.0004 54.2263 84.0996C54.725 84.3271 55.0492 84.1622 55.2001 83.6069C56.3583 83.1536 55.824 82.4835 57.3977 83.0667C58.35 83.4197 59.2561 84.0274 59.9497 84.7678C60.8197 84.2092 58.841 80.7575 58.7752 79.6563C58.6185 77.0603 59.6919 74.9141 61.0882 72.7818C63.8022 68.6381 67.5905 65.0751 71.3263 61.8691C78.4818 55.7296 85.9991 49.8847 94.0787 44.9933C90.7456 42.6784 86.8516 42.0509 82.8856 43.1268C79.2293 44.1187 76.2656 45.9201 72.9 47.4957C69.7821 48.9549 66.4726 49.5545 65.4785 45.5723C64.3646 41.1118 67.9183 39.4558 71.1059 37.4555C70.3101 36.862 67.6898 37.2863 66.6987 37.3566C64.4912 37.5127 62.38 38.0111 60.2349 38.4518C59.206 38.6629 58.2609 38.6153 57.2416 38.8223C55.7264 39.1299 54.1442 39.4743 52.6113 39.9126C48.9641 40.9556 45.3439 42.5387 42.1924 44.6718C39.4685 46.5145 37.5787 49.1165 35.3841 51.5129C32.8813 54.2453 30.483 56.9339 26.7727 57.934C25.0352 58.4026 22.997 58.8278 21.7653 57.276C20.6192 55.8329 20.5552 54.0938 20.5929 52.3295C20.6758 48.4322 22.5584 44.2209 24.7484 41.0363C27.1256 37.5794 30.3097 35.5997 33.318 32.8172C28.9698 33.1281 24.7675 35.42 20.7687 37.0044C19.9272 37.338 19.0777 37.7128 18.2315 38.0212C17.3293 38.3504 16.7316 38.1489 15.8671 38.2995C13.8945 38.6437 12.1999 39.4752 10.2811 38.1497C6.65064 35.6423 10.2879 30.5414 12.7875 28.9762C16.269 26.7963 19.811 24.961 23.6466 23.4061C21.5701 21.1538 23.3434 17.9396 25.2575 16.3418C27.679 14.3199 30.7627 13.1614 33.6808 12.0791C35.9883 11.223 38.2548 10.4011 40.652 9.886C43.1723 9.34466 46.119 8.51748 48.6762 8.59682C51.0745 8.67124 53.201 8.24872 55.6299 8.18113C57.6509 8.12495 59.6766 8.17356 61.6973 8.12118C67.1342 7.9807 72.5911 8.34742 77.9047 8.73841C73.6948 -3.57256 101.425 0.229319 107.342 1.83737C112.718 3.29891 118.878 4.99426 123.394 8.46206C125.308 9.93081 127.125 11.6007 128.822 13.3143C131.327 15.8426 132.713 19.1536 134.038 22.4216C137.398 20.7757 140.61 18.982 144.287 18.1658C147.785 17.3895 151.369 16.3372 154.887 15.7507C157.563 15.3046 161.446 15.0021 163.697 16.8911C166.143 18.9429 167.417 22.1359 168.876 24.8702C175.886 18.2186 183.705 13.3659 193.7 13.6886C203.48 14.0045 209.912 22.4503 211.098 31.6022C212.404 41.687 207.911 52.2245 201.822 60.0341C199.092 63.5364 196.266 66.9189 192.591 69.5318C190.769 70.8269 188.846 72.2459 186.848 73.2572C185.851 73.7614 184.762 74.2169 183.716 74.6048C183.243 74.7801 182.757 74.9556 182.266 75.0746C180.864 75.4147 181.137 74.9605 180.615 76.1879C180.192 77.1844 180.244 78.8989 180.063 79.9925C179.856 81.2425 179.733 82.5098 179.431 83.7428C178.907 85.88 178.362 87.9647 177.706 90.0519C176.464 94.0018 174.793 97.9828 172.746 101.586C174.482 102.34 176.913 102.416 178.768 102.644C180.776 102.891 182.786 103.411 184.872 103.994C189.05 105.162 192.785 106.149 196.758 107.898C200.884 109.714 204.56 112.425 208.533 114.584C212.185 116.568 215.878 119.054 219.27 121.436C220.077 122.003 220.577 122.496 221.219 123.214C221.877 123.947 222.086 124.091 222.871 124.726C223.226 125.012 224.256 126.457 224.66 126.51C225.384 126.606 225.273 126.066 225.841 125.311C227.028 123.736 228.684 122.515 229.863 120.9C230.846 119.553 231.872 118.189 232.922 117.031C235.465 114.228 237.573 111.121 239.381 107.761C240.322 106.011 241.312 104.347 242.334 102.695C243.352 101.052 245.16 98.8823 247.187 98.9794C247.024 98.1425 246.506 98.003 247.399 97.4912C247.975 97.1615 249.094 97.693 249.538 98.0276C250.713 98.9146 250.763 100.635 250.689 101.927C250.499 105.258 249.802 108.545 248.831 111.694C247.663 115.48 246.2 118.819 244.603 122.432C243.332 125.31 241.753 129.116 238.589 130.43C240.714 133.464 239.694 135.935 238.274 139.156C237.236 141.511 235.865 143.943 233.777 145.501C231.423 147.258 228.871 145.768 226.409 144.607C224.922 143.906 220.376 142.251 221.301 140.093C220.165 139.941 219.451 139.116 218.417 138.862C217.322 138.594 217.51 139.038 216.353 139.205C215.465 139.332 214.137 138.537 213.301 138.253C211.904 137.778 210.512 137.291 209.118 136.811C205.193 135.459 201.335 134.128 197.371 133.045C189.996 131.03 182.531 129.887 175.182 128.087C173.709 127.727 172.245 127.379 170.711 127.09C170.394 127.03 168.751 126.938 168.551 126.599C168.202 126.005 169.277 122.681 169.369 122.003C169.975 117.556 169.777 112.686 168.923 108.29C168.569 106.462 166.986 104.095 167 102.311C167.009 101.114 168.07 99.8067 168.693 98.7224C170.233 96.0416 171.847 93.1452 172.988 90.3554C174.735 86.0875 175.805 81.2702 176.577 76.6994C176.979 74.3164 177.446 71.7333 177.556 69.3227C177.639 67.4851 177.489 65.5579 177.755 63.6761C176.738 63.7726 175.299 64.2994 174.383 63.7354C173.227 63.0237 172.916 60.9915 173.064 59.7779C169.103 60.469 169.235 56.7133 169.48 53.7761C162.322 53.7761 171.489 43.1396 172.634 40.8556C173.161 39.8054 173.145 40.9849 172.913 39.3609C172.811 38.647 172.323 37.8558 172.046 37.1994C171.445 35.7664 170.794 34.3554 170.1 32.9651C168.632 30.0288 166.97 27.1917 165.155 24.456C163.522 25.5942 162.049 26.9415 160.685 28.387C161.56 26.0986 164.234 23.2637 163.09 20.6652C162.031 18.2566 158.491 18.4236 156.4 18.8639C150.72 20.0616 145.272 21.8059 139.86 23.8255C141.537 24.7868 144.103 24.0442 145.769 23.3093C147.831 22.3989 150.049 21.4439 152.272 20.9616C154.21 20.5411 156.756 20.6847 156.196 23.2957C155.742 25.4113 153.673 27.4487 152.307 29.0306C149.299 32.5157 145.527 35.2136 141.822 37.9094C137.839 40.8072 134.001 43.9557 129.968 46.7696C122.677 51.8565 114.837 56.2775 107.305 61.0257C103.39 63.4929 98.9549 65.4783 94.7097 67.3069C90.04 69.3183 85.5627 71.4719 80.718 73.0607C78.0274 73.9432 75.3607 74.6694 72.7168 75.6736C71.0597 76.3027 68.174 77.5633 67.079 75.6952C64.8554 71.9009 72.9025 66.911 75.1078 64.5911C76.629 66.0686 69.127 71.5742 69.7143 73.7253C70.1756 75.4158 71.9601 73.2329 72.8218 72.7722C74.2143 72.0275 75.8635 71.6532 77.263 70.8034C80.1335 69.0608 83.5368 67.051 84.1922 63.4483C83.7361 62.9671 83.7419 62.5228 84.2094 62.1155C84.4174 61.868 84.5826 61.5963 84.7042 61.2999C84.9085 60.7337 84.9905 60.0248 85.0999 59.4244C85.423 57.6502 84.6118 55.989 85.37 54.2527C80.946 57.6046 76.6938 61.391 72.4943 65.0196C68.7276 68.2744 64.7971 72.5365 63.4129 77.3933C63.2357 78.0156 62.941 78.7215 62.9733 79.3782C63.0362 80.6676 63.1649 80.3895 64.2036 80.804C65.2425 81.2188 66.7553 81.1829 67.8724 81.227C68.5092 81.2516 71.3531 80.5773 70.7877 81.9747C70.4618 82.7804 68.4903 82.7501 67.7844 82.8245C66.0127 83.0115 65.052 82.8195 65.8913 84.7399C66.2675 85.6006 67.0298 86.1838 67.6277 86.8498C69.2919 88.7032 70.1958 91.5458 71.5048 93.7232C72.9963 96.2038 74.6359 98.5627 76.3777 100.873C77.0965 101.826 78.0572 103.618 79.0538 104.298C79.9842 104.933 78.8895 104.88 80.435 104.622C81.1087 104.51 81.7192 104.072 82.3636 103.915C86.2167 102.977 90.1772 101.918 94.1618 100.76C99.2586 99.2776 104.607 98.014 109.47 95.8798C113.826 93.9673 118.15 91.6907 122.552 89.7539C123.837 89.1888 125.121 88.8139 126.12 87.7736C127.326 86.5181 128.325 84.8744 129.437 83.5249C131.329 81.2291 133.072 78.8943 135.108 76.7188C136.624 75.1 139.31 72.0909 141.448 71.4446C145.511 70.2173 143.336 76.4058 142.811 77.9699C143.766 78.1867 144.268 76.9616 145.389 77.314C146.731 77.7361 146.87 79.5209 147.038 80.6394C147.083 80.9374 146.679 81.4944 146.802 81.7601C146.844 81.8506 147.719 82.3684 147.888 82.6085C148.502 83.4804 148.381 84.5406 148.149 85.4809C146.946 90.3515 142.672 93.908 139.529 97.5008C140.936 97.2348 141.978 96.4334 143.305 96.0362C144.551 95.6635 145.804 95.6829 147.059 95.576C148.374 95.4642 149.637 94.9721 150.982 94.9472C152.394 94.9209 153.745 95.3228 155.145 95.4822Z" fill="black"/>
<path fill-rule="evenodd" clip-rule="evenodd" d="M6.48967 51.6733C5.71457 52.18 5.49609 52.677 5.46932 53.8458C5.4586 54.3251 5.49166 56.1134 6.16161 56.0459C6.7903 55.9827 6.48967 52.2882 6.48967 51.6733ZM2.48572 54.5859C2.84689 50.84 4.21735 47.0312 7.4413 44.6972C8.2386 44.12 9.14053 44.1405 10.0144 43.7763C10.5395 43.5576 11.3692 42.5406 11.9654 42.6609C14.1601 43.1049 11.6246 46.021 11.2533 46.7882C10.1026 49.1649 10.1803 51.2531 10.2147 53.8171C10.2408 55.7657 10.6457 59.0506 9.66334 60.8143C8.61617 62.6923 6.34492 61.4727 5.07712 60.3613C3.47708 58.9579 2.26864 56.7234 2.48572 54.5859Z" fill="black"/>
<path fill-rule="evenodd" clip-rule="evenodd" d="M41.0134 65.6558C41.0134 67.746 42.7098 66.3308 42.6494 64.844C42.5606 62.6552 40.9341 64.0031 41.0134 65.6558ZM50.0327 54.1001C48.176 55.77 46.7436 56.707 46.3858 59.2748C46.1148 61.2198 46.3841 63.1462 46.3956 65.1054C46.415 68.3895 43.763 71.8421 40.9092 68.0776C38.8275 65.3318 39.5742 61.0142 41.2717 58.2545C42.1625 56.8068 43.4341 55.3744 44.9031 54.4722C46.0079 53.7931 49.116 52.4569 50.0327 54.1001Z" fill="black"/>
<path fill-rule="evenodd" clip-rule="evenodd" d="M24.1009 104.714C23.8857 105.223 23.3802 107.303 24.4115 106.832C25.3216 106.417 24.7319 105.038 24.1009 104.714ZM18.6528 98.2934C18.4937 97.5114 18.5584 92.6093 19.9088 92.977C20.9693 93.2652 21.1446 95.7745 21.5766 96.6478C23.1855 99.8999 26.8784 101.925 28.1519 105.282C29.5733 109.03 25.2757 109.146 22.9952 107.628C20.2951 105.831 18.7329 101.43 18.6528 98.2934Z" fill="black"/>
<path fill-rule="evenodd" clip-rule="evenodd" d="M15.3426 78.1935C15.9285 77.4023 15.9878 76.9796 15.6537 76.2797C15.2266 76.7442 15.3024 77.408 15.3426 78.1935ZM15.7666 81.7327C12.7116 82.0748 12.5587 76.4451 13.0818 74.5121C13.4985 72.9726 14.3941 71.3185 15.3163 70.0641C15.5025 69.811 17.2687 67.5365 17.6148 67.531C18.9436 67.51 18.5786 69.0113 18.435 69.5701C17.9837 71.3308 17.8048 72.8023 17.9262 74.7544C18.0567 76.8432 19.0458 81.8022 15.7666 81.7327Z" fill="black"/>
<path fill-rule="evenodd" clip-rule="evenodd" d="M154.473 32.9774C150.105 36.6408 145.958 40.6068 141.208 43.8111C138.884 45.3793 136.454 46.7666 134.135 48.3602C132.954 49.172 131.749 49.8987 130.438 50.4953C129.281 51.0224 128.524 51.091 129.485 49.8399C130.126 49.0041 131.565 48.4218 132.44 47.8277C133.786 46.9126 135.057 45.8977 136.472 45.086C138.968 43.6541 141.449 42.4982 143.749 40.7424C145.791 39.1843 147.898 37.663 149.847 36.007C150.682 35.297 153.453 32.0369 154.473 32.9774Z" fill="black"/>
<path fill-rule="evenodd" clip-rule="evenodd" d="M154.562 46.2053C156.526 47.8856 151.611 52.4892 150.49 53.5325C149.308 54.6329 148.006 55.6145 146.721 56.5891C146.268 56.9325 143.8 59.23 143.173 59.0446C141.937 58.6785 143.56 57.1879 143.982 56.7994C145.347 55.5406 146.741 54.3191 148.076 53.0264C149.28 51.8617 150.584 50.7831 151.748 49.5807C152.691 48.6066 153.483 46.956 154.562 46.2053Z" fill="black"/>
<path fill-rule="evenodd" clip-rule="evenodd" d="M9.02221 113.943C8.50931 112.754 7.59073 114.074 8.05642 114.667C8.49684 115.229 8.95662 114.171 9.02221 113.943ZM6.01477 111.596C6.28973 109.848 6.92518 108.877 8.56465 110.369C9.69121 111.394 11.957 114.309 11.742 115.898C11.4597 117.982 9.16419 117.39 7.97423 116.301C6.75449 115.183 6.21602 113.145 6.01477 111.596Z" fill="black"/>
<path fill-rule="evenodd" clip-rule="evenodd" d="M9.60743 145.991C7.59906 145.838 5.88564 144.296 5.03276 142.489C4.31515 140.97 3.63594 138.52 6.15702 139.319C7.80012 139.84 14.1342 146.236 9.60743 145.991Z" fill="black"/>
<path fill-rule="evenodd" clip-rule="evenodd" d="M33.9469 136.084C32.3948 136.438 30.8596 135.415 29.9052 134.263C29.3113 133.545 27.9293 131.028 28.6256 129.992C29.5962 128.547 31.0617 131.452 31.5672 132.027C32.3601 132.927 34.953 134.649 33.9469 136.084Z" fill="black"/>
<path fill-rule="evenodd" clip-rule="evenodd" d="M35.3449 96.785C34.1282 96.2204 32.9988 95.5407 32.5094 94.1923C32.1983 93.3336 31.9369 90.7584 33.3187 90.7701C34.917 90.7843 38.5768 96.5272 35.3449 96.785Z" fill="black"/>
<path fill-rule="evenodd" clip-rule="evenodd" d="M26.8151 69.9922C28.4441 69.9627 28.8298 70.8611 29.0562 72.1518C29.2101 73.0278 29.9563 76.0016 29.1814 76.6108C28.0742 77.4813 26.3126 75.4868 25.9566 74.7038C25.2228 73.0918 26.2374 71.5063 26.8151 69.9922Z" fill="black"/>
<path fill-rule="evenodd" clip-rule="evenodd" d="M54.8059 159.159C55.5991 159.52 57.4035 160.32 56.714 161.562C55.993 162.86 53.9231 161.598 53.1499 161.031C52.8262 160.793 50.7697 159.238 50.8558 158.717C51.037 157.608 53.872 159.055 54.8059 159.159Z" fill="black"/>
<path fill-rule="evenodd" clip-rule="evenodd" d="M2.54987 78.059C3.09187 79.4162 3.70197 84.0788 0.847853 81.561C-0.0231299 80.7925 -0.154582 79.8328 0.145506 78.7778C0.579425 77.2489 1.21091 77.5521 2.54987 78.059Z" fill="black"/>
<path fill-rule="evenodd" clip-rule="evenodd" d="M153.8 60.6957C153.168 59.4044 154.728 58.5716 155.562 57.7393C156.107 57.1958 158.396 54.2477 159.146 54.4142C160.69 54.7568 154.559 60.1199 153.8 60.6957Z" fill="black"/>
<path fill-rule="evenodd" clip-rule="evenodd" d="M26.7947 154.223C28.2839 153.984 28.6314 155.638 29.5908 156.359C30.0022 156.669 31.4146 156.941 31.1306 157.597C30.3842 159.321 26.7217 155.383 26.7947 154.223Z" fill="black"/>
<path fill-rule="evenodd" clip-rule="evenodd" d="M39.3701 115.156C40.3937 114.727 43.3481 117.029 42.4998 118.023C41.2317 119.511 39.4423 115.969 39.3701 115.156Z" fill="black"/>
<path fill-rule="evenodd" clip-rule="evenodd" d="M60.9466 148.454C60.2005 148.529 57.0517 147.539 58.2183 146.214C59.0374 145.283 61.2142 147.612 60.9466 148.454Z" fill="black"/>
<path fill-rule="evenodd" clip-rule="evenodd" d="M23.2392 142.096C22.4985 142.392 19.8268 141.783 20.6667 140.622C21.467 139.518 23.2403 141.179 23.2392 142.096Z" fill="black"/>
<path fill-rule="evenodd" clip-rule="evenodd" d="M45.1116 147.101C45.9777 147.011 46.6033 147.534 46.752 148.418C45.6688 148.572 45.3347 148.315 45.1116 147.101Z" fill="black"/>
<path fill-rule="evenodd" clip-rule="evenodd" d="M157.754 18.7256C158.12 18.7272 158.485 18.7291 158.848 18.7308C158.481 18.7289 158.118 18.7272 157.754 18.7256Z" fill="black"/>
<path fill-rule="evenodd" clip-rule="evenodd" d="M152.013 94.8701C151.466 94.8706 150.919 94.8717 150.372 94.8722C150.919 94.8711 151.466 94.8706 152.013 94.8701Z" fill="black"/>
<path fill-rule="evenodd" clip-rule="evenodd" d="M77.4112 5.74149C77.3861 6.28892 77.3609 6.83636 77.3352 7.38191C77.3598 6.83401 77.3855 6.2875 77.4112 5.74149Z" fill="black"/>
<path fill-rule="evenodd" clip-rule="evenodd" d="M246.831 98.6988C247.005 99.3071 246.75 99.408 246.063 99.0012C246.319 98.9003 246.575 98.7997 246.831 98.6988Z" fill="black"/>
<path fill-rule="evenodd" clip-rule="evenodd" d="M231.3 146.405C231.574 146.407 231.848 146.409 232.12 146.411C231.844 146.409 231.572 146.407 231.3 146.405Z" fill="black"/>
<path fill-rule="evenodd" clip-rule="evenodd" d="M179.353 102.397C178.895 102.746 178.439 102.795 177.986 102.378C178.442 102.385 178.897 102.391 179.353 102.397Z" fill="black"/>
<path fill-rule="evenodd" clip-rule="evenodd" d="M169.118 55.7744C169.106 56.2307 169.095 56.6868 169.083 57.1414C169.094 56.6846 169.106 56.2294 169.118 55.7744Z" fill="black"/>
<path fill-rule="evenodd" clip-rule="evenodd" d="M192.75 13.5881C192.294 13.5878 191.838 13.5873 191.383 13.5867C191.839 13.4161 192.294 13.4721 192.75 13.5881Z" fill="black"/>
<path fill-rule="evenodd" clip-rule="evenodd" d="M59.0553 8.02521C58.5998 8.052 58.1437 8.07879 57.6882 8.10559C58.1437 8.07879 58.5998 8.052 59.0553 8.02521Z" fill="black"/>
<path fill-rule="evenodd" clip-rule="evenodd" d="M70.2649 8.11185C69.9004 8.08095 69.5354 8.04979 69.1713 8.01889C69.5354 8.04979 69.8999 8.08095 70.2649 8.11185Z" fill="black"/>
<path fill-rule="evenodd" clip-rule="evenodd" d="M76.2797 8.5452C75.9152 8.68108 75.5508 8.76146 75.186 8.54711C75.5508 8.54656 75.9152 8.54574 76.2797 8.5452Z" fill="black"/>
<path fill-rule="evenodd" clip-rule="evenodd" d="M43.7445 9.29382C43.2884 9.38651 42.8329 9.47919 42.3774 9.57106C42.8335 9.47919 43.289 9.38651 43.7445 9.29382Z" fill="black"/>
<path fill-rule="evenodd" clip-rule="evenodd" d="M169.392 120.571C169.38 120.845 169.367 121.119 169.355 121.391C169.368 121.117 169.38 120.844 169.392 120.571Z" fill="black"/>
<path fill-rule="evenodd" clip-rule="evenodd" d="M18.7205 98.4254C18.7259 98.6081 18.7311 98.7907 18.736 98.9723C18.73 98.7891 18.7257 98.6073 18.7205 98.4254Z" fill="black"/>
<path fill-rule="evenodd" clip-rule="evenodd" d="M248.524 97.4445L247.157 97.4516C247.612 97.112 248.068 97.1552 248.524 97.4445Z" fill="black"/>
<path fill-rule="evenodd" clip-rule="evenodd" d="M155.02 95.5082C154.655 95.448 154.291 95.3879 153.927 95.3278C154.291 95.3879 154.656 95.448 155.02 95.5082Z" fill="black"/>
<path fill-rule="evenodd" clip-rule="evenodd" d="M54.9543 159.118C54.4985 159.029 54.043 158.94 53.5873 158.851L54.9543 159.118Z" fill="black"/>
<path fill-rule="evenodd" clip-rule="evenodd" d="M146.967 80.6542C146.959 80.3805 146.95 80.1068 146.942 79.834C146.95 80.1076 146.959 80.381 146.967 80.6542Z" fill="black"/>
<path fill-rule="evenodd" clip-rule="evenodd" d="M60.4223 8.11587C60.1489 8.08224 59.8752 8.04861 59.6021 8.01498C59.8752 8.04861 60.1489 8.08224 60.4223 8.11587Z" fill="black"/>
<path fill-rule="evenodd" clip-rule="evenodd" d="M105.261 1.35457C104.987 1.27173 104.713 1.18889 104.44 1.10605C104.714 1.18889 104.987 1.27173 105.261 1.35457Z" fill="black"/>
<path fill-rule="evenodd" clip-rule="evenodd" d="M137.796 185.761C137.978 185.773 138.162 185.784 138.342 185.795C138.159 185.783 137.977 185.772 137.796 185.761Z" fill="black"/>
<path fill-rule="evenodd" clip-rule="evenodd" d="M12.3031 38.9492C12.5776 38.9563 12.8521 38.9636 13.1233 38.971C12.8474 38.9636 12.5753 38.9563 12.3031 38.9492Z" fill="black"/>
<path fill-rule="evenodd" clip-rule="evenodd" d="M195.757 13.855C195.302 13.823 194.846 13.791 194.39 13.7588C194.846 13.791 195.302 13.823 195.757 13.855Z" fill="black"/>
<path fill-rule="evenodd" clip-rule="evenodd" d="M51.6733 12.5749C51.0339 12.576 50.3952 12.5771 49.7595 12.5782C50.4004 12.5771 51.0369 12.576 51.6733 12.5749Z" fill="black"/>
<path fill-rule="evenodd" clip-rule="evenodd" d="M180.844 68.8978C180.852 69.3541 180.861 69.8104 180.87 70.2648C180.862 69.8083 180.853 69.3528 180.844 68.8978Z" fill="black"/>
<path fill-rule="evenodd" clip-rule="evenodd" d="M147.365 166.785C146.999 166.78 146.634 166.774 146.271 166.768C146.637 166.773 147.001 166.779 147.365 166.785Z" fill="black"/>
<path fill-rule="evenodd" clip-rule="evenodd" d="M186.188 21.9254C186.735 21.8647 187.282 21.804 187.829 21.7433C187.304 22.2075 186.737 21.8986 186.188 21.9254Z" fill="black"/>
<path fill-rule="evenodd" clip-rule="evenodd" d="M144.357 166.928C144.083 166.918 143.809 166.908 143.537 166.898C143.812 166.908 144.085 166.918 144.357 166.928Z" fill="black"/>
<path fill-rule="evenodd" clip-rule="evenodd" d="M134.904 171.698C134.918 172.154 134.932 172.61 134.946 173.065C134.932 172.607 134.918 172.153 134.904 171.698Z" fill="black"/>
<path fill-rule="evenodd" clip-rule="evenodd" d="M176.619 38.7134C176.984 38.6795 177.348 38.6456 177.713 38.612C177.38 38.8685 176.989 38.7184 176.619 38.7134Z" fill="black"/>
<path fill-rule="evenodd" clip-rule="evenodd" d="M57.1415 111.448C57.5059 111.516 57.8709 111.582 58.2351 111.649C57.8706 111.582 57.5059 111.516 57.1415 111.448Z" fill="black"/>
<path fill-rule="evenodd" clip-rule="evenodd" d="M114.01 39.508C114.464 39.1203 114.92 39.1624 115.377 39.5036C114.921 39.5047 114.465 39.5063 114.01 39.508Z" fill="black"/>
<path fill-rule="evenodd" clip-rule="evenodd" d="M96.9016 53.3137C96.9147 53.1314 96.9276 52.949 96.9415 52.7669C96.929 52.9496 96.9153 53.1317 96.9016 53.3137Z" fill="black"/>
<path fill-rule="evenodd" clip-rule="evenodd" d="M176.476 48.1191C176.48 48.4843 176.484 48.8493 176.488 49.2127C176.484 48.8466 176.481 48.483 176.476 48.1191Z" fill="black"/>
<path fill-rule="evenodd" clip-rule="evenodd" d="M55.852 105.269C56.4518 105.472 57.6584 106.087 58.3574 106.005C58.9171 105.94 59.3783 105.26 59.918 105.26C61.3712 105.262 61.1016 106.942 60.3995 107.844C58.5007 110.283 54.2578 107.638 55.852 105.269Z" fill="black"/>
<path fill-rule="evenodd" clip-rule="evenodd" d="M61.783 96.5116C63.7647 97.0231 62.7777 101.382 61.1118 101.682C59.1504 102.035 58.8087 98.4905 59.1961 97.2093C60.2055 97.8092 59.5805 99.9488 60.8526 99.3575C61.6616 98.981 61.5386 97.2405 61.783 96.5116Z" fill="black"/>
</g>
<defs>
<clipPath id="clip0">
<rect width="251" height="194" fill="white"/>
</clipPath>
</defs>
</svg>
