<svg width="142" height="124" viewBox="0 0 142 124" fill="none" xmlns="http://www.w3.org/2000/svg">
<path fill-rule="evenodd" clip-rule="evenodd" d="M109.745 100.405C110.545 103.113 110.035 106.272 108.204 108.5C107.021 109.939 104.208 111.225 102.629 109.727C101.923 109.057 101.624 106.764 101.322 105.695C101.045 104.71 100.581 102.888 100.787 102.063C101.087 100.86 103.485 101.138 104.606 101.032C106.326 100.871 108.033 100.625 109.745 100.405ZM132.372 101.78C132.748 102.609 133.349 103.158 133.605 104.078C133.772 104.678 133.873 105.28 133.939 105.897C134.02 106.644 134.074 106.615 133.559 106.964C132.773 107.497 130.762 107.456 129.806 107.61C128.558 107.812 127.315 108.049 126.066 108.25C126.369 107.088 126.21 105.836 126.523 104.651C126.827 103.499 127.357 102.362 128.104 101.415C128.66 100.711 129.469 99.8673 130.469 99.863C131.758 99.8574 131.961 100.877 132.372 101.78ZM53.11 76.8726C53.3013 79.3649 52.9461 82.0189 51.5287 84.1606C50.9284 85.0676 50.0543 85.5555 49.3446 86.3364C48.5234 87.2402 48.0781 88.3573 46.7808 88.744C45.9438 88.9938 44.9615 88.8214 44.0911 88.9337C42.6465 89.1205 42.22 88.9181 41.0018 88.1703C40.1269 87.6329 39.1183 87.7337 38.1957 87.1447C37.0893 86.4384 36.126 85.4313 35.078 84.6315C40.959 81.7505 47.0221 79.2973 53.11 76.8726ZM68.9187 78.3506C71.1694 79.4096 72.3596 81.2161 73.0028 83.5479C66.7944 84.967 60.752 86.703 54.6538 88.6607C56.3565 84.3292 58.2689 80.3629 62.9272 78.3482C63.8565 77.9463 64.8115 77.3063 65.8692 77.3216C66.9227 77.3366 67.9949 77.916 68.9187 78.3506ZM125.545 84.7718C128.745 86.4557 127.118 91.8377 126 94.2271C124.577 93.1805 123.085 92.1611 121.696 91.1419C120.177 90.0278 118.812 88.5939 117.426 87.3249C118.16 86.9423 118.637 86.3338 119.319 85.8967C119.994 85.4641 120.663 85.4332 121.42 85.2641C122.868 84.9402 124.04 83.9792 125.545 84.7718ZM100.577 72.6447C100.832 72.9723 101.137 73.2812 101.378 73.6178C101.962 74.4353 102.468 75.2666 103.145 76.025C104.346 77.3689 106.093 79.1401 108.06 79.2628L108.117 79.8365C107.537 79.8218 107.194 79.3223 106.691 79.2715C106.296 79.2318 105.743 79.5336 105.259 79.4909C103.761 79.359 102.289 79.2836 100.769 79.324C97.7674 79.4036 94.8173 79.8821 91.8672 80.2635C92.4308 78.2547 93.4827 76.1971 95.1588 74.8534C95.7383 74.3887 96.2935 73.75 96.9476 73.3797C97.3414 73.1568 97.7583 73.1398 98.1636 72.9657C98.6327 72.7642 99.2348 72.0917 99.7192 72.0273C100.226 71.9598 100.228 72.1967 100.577 72.6447ZM124.627 72.8277C126.201 74.0916 127.411 75.6951 128.705 77.2129C129.877 78.5868 131.465 80.5468 131.882 82.3155C129.804 83.2931 126.24 82.3983 124.899 80.5899C123.246 78.3597 124.056 75.2556 124.627 72.8277ZM88.5884 65.6215C88.2783 67.7173 87.2709 70.0525 85.7591 71.6173C85.1072 72.2921 84.536 73.172 83.7954 73.762C82.8282 74.5325 82.0497 74.1377 80.9272 74.2573C79.7216 74.3855 78.9403 75.1722 77.6554 74.9587C76.7402 74.8064 75.8972 74.2997 75.0371 74.1459C74.0975 73.9778 73.2773 74.0774 72.3433 73.6123C71.1879 73.0372 70.2662 71.9055 69.3678 71.0461C69.8407 70.6716 70.7956 70.6447 71.4006 70.4423C72.1997 70.1748 72.9979 69.9098 73.8016 69.6536C75.4613 69.1244 77.1164 68.5841 78.7795 68.0639C81.9469 67.0731 85.2914 66.1319 88.5884 65.6215Z" fill="#FF5678"/>
<path fill-rule="evenodd" clip-rule="evenodd" d="M138.281 13.8785L138.177 14.5733C139.189 14.7476 139.218 14.1369 138.281 13.8785ZM133.88 12.6805C133.338 12.4915 132.451 12.7686 132.877 13.4162C133.479 14.3306 133.753 13.1369 133.88 12.6805ZM90.1548 38.0018C90.2364 37.9204 89.2754 36.0842 89.1514 35.7762C88.5311 36.1301 88.4891 36.0445 88.7418 36.6364C88.96 37.1468 89.7194 37.6652 90.1548 38.0018ZM33.4913 38.5055C33.195 38.4796 32.6052 38.3031 32.3536 38.4061C32.0022 38.5501 32.0967 38.8836 32.0542 39.3701C33.082 39.3223 33.2258 39.4584 33.4913 38.5055ZM32.1585 37.4974C32.661 37.5876 33.1632 37.6778 33.6656 37.768C33.7729 37.1926 34.0569 36.241 32.9977 36.5884C32.8981 36.6211 32.2858 37.3102 32.1585 37.4974ZM91.3426 38.6805C90.8083 39.2115 93.2885 40.3353 93.5442 39.9753C94.1023 39.1899 91.7033 38.7981 91.3426 38.6805ZM103.611 32.4051C103.911 32.3757 104.211 32.3461 104.511 32.3166C104.407 31.879 104.092 30.2661 103.435 30.3528C102.783 30.4386 103.519 32.0639 103.611 32.4051ZM104.705 35.0383C104.714 34.6749 104.863 33.8688 104.721 33.5189C104.624 33.281 104.226 32.5584 103.655 33.028C103.533 33.1279 103.477 34.5832 103.514 34.6303C103.67 34.8283 104.484 34.9622 104.705 35.0383ZM101.604 39.7058C100.989 39.235 99.6498 38.5405 99.0569 39.605C98.2304 41.0885 101.07 40.0969 101.604 39.7058ZM98.0845 39.8294C97.2759 39.981 96.4591 39.9611 95.6406 39.9039C94.7236 39.8397 94.5062 39.5597 94.2392 40.4379C95.2227 40.7944 97.3175 41.0418 98.3126 40.7026C98.2368 40.4115 98.1606 40.1203 98.0845 39.8294ZM103.184 35.7985C102.901 36.3786 102.288 37.1384 102.123 37.7436C102.001 38.1897 101.953 37.9668 102.055 38.3131C102.091 38.4366 102.589 38.9537 102.676 39.0787C103.281 38.6211 104.01 38.1536 104.319 37.4486C104.815 36.3199 104.178 36.2294 103.184 35.7985ZM89.43 33.4232C87.3741 34.0628 84.849 34.6892 82.6728 34.4987C82.6442 34.685 86.3637 35.7689 86.8084 35.6907C87.2628 35.6108 87.2989 34.9775 87.8434 34.6395C88.4437 34.2669 88.9395 34.4886 89.603 34.4306C89.5453 34.0948 89.4878 33.759 89.43 33.4232ZM96.1977 42.0387C94.3053 41.9176 92.6147 41.4656 90.9407 40.6045C89.9794 40.11 89.2887 39.3928 88.646 38.5654C88.1484 37.9244 88.2502 37.9771 87.4687 37.7597C86.8913 37.5994 86.1812 37.6643 85.5883 37.59C83.6034 37.3403 81.625 36.7387 79.7371 36.1125C77.6184 35.4099 75.7933 34.419 73.4661 34.4768C69.47 34.5763 66.2289 37.6006 62.0604 36.3303C60.4064 35.8265 58.6934 35.1575 57.3557 34.0773C55.6163 32.6721 54.5599 31.8397 52.1086 32.3375C50.135 32.7381 48.6208 33.7839 46.9298 34.7477C45.0028 35.8463 42.8998 36.5045 40.751 37.0847C39.9093 37.3119 39.1297 37.4441 38.2476 37.4883C37.7229 37.5148 35.2363 37.1364 34.9291 37.4036C34.632 37.662 34.4969 39.4452 34.5285 39.7704C34.5813 40.3134 34.3416 40.3695 34.9218 40.5983C35.3248 40.7571 36.5689 40.5964 37.0683 40.6533C41.086 41.1122 45.2022 41.2497 49.1557 41.942C52.8712 42.5926 56.6001 43.119 60.274 43.882C65.053 44.8748 69.9202 45.3277 74.7018 46.289C77.0131 46.7535 79.344 47.408 81.6282 47.9029C83.7082 48.3533 85.7981 48.7714 87.89 49.1795C87.8133 48.8922 87.3785 47.8451 88.0725 47.9416C88.5123 48.0027 89.2504 49.5214 89.4824 49.8631C90.55 51.4362 91.6872 52.6303 93.1398 53.8822C94.6036 55.144 96.0777 56.3927 97.5636 57.6311C98.7775 58.6427 101.385 60.1517 101.318 61.9184C100.579 62.059 99.1104 60.7493 98.5569 60.3944C97.4368 59.6761 96.3627 58.8934 95.3183 58.0764C94.3358 59.514 96.6647 61.1805 96.9292 62.5402C96.3303 62.5427 95.3301 60.8945 94.9665 60.4577C94.001 61.3576 92.9173 62.1512 92.2222 63.2816C100.013 62.9492 101.29 72.6117 106.914 75.8872C108.16 76.6127 109.721 76.9126 111.146 76.5938C112.63 76.262 114.056 75.7935 115.361 74.9552C118.277 73.083 120.414 69.4835 121.555 66.3924C122.185 64.6853 122.779 63.0318 123.064 61.2355C123.38 59.2464 123.083 57.2246 122.826 55.2426C122.368 51.7109 120.491 48.1455 117.833 45.6194C116.641 44.4873 115.34 43.4964 114.248 42.2605C113.868 41.8291 112.999 40.1773 112.521 40.0739C111.64 39.8831 111.186 41.1186 110.577 40.1073C109.98 39.1174 111.118 38.7311 111.811 38.27C112.559 37.7722 113.284 37.2486 114.014 36.7289C115.458 35.7011 116.888 34.6905 118.276 33.5963C125.04 28.261 131.02 22.3129 137.078 16.2504C135.944 15.982 134.331 15.2105 133.178 15.4162C132.024 15.6223 130.999 16.4384 129.783 16.5737C128.598 16.7054 127.448 16.4497 126.349 16.0772C125.054 15.6381 124.178 15.0732 123.091 16.1688C121.346 17.9292 120.385 20.3753 118.552 22.041C116.7 23.7244 114.108 24.7076 111.697 25.2154C109.464 25.6854 106.368 25.4634 104.732 27.221C104.364 27.6163 104.035 27.8978 104.014 28.4888C103.977 29.5398 104.216 28.7866 104.553 29.4375C105.104 30.4971 105.319 31.8192 105.443 32.9901C105.694 35.3603 105.377 37.9564 103.478 39.59C101.433 41.3493 98.9027 42.0901 96.1977 42.0387ZM96.0895 38.2C97.4745 38.9066 100.275 37.9857 101.382 37.1241C102.888 35.9516 103.007 33.9109 102.766 32.2049C102.065 32.3745 101.365 32.5439 100.664 32.7135C100.366 32.7857 100.067 32.858 99.7683 32.9304C99.7955 33.1775 99.755 33.4082 99.6466 33.6224C98.9868 34.4679 98.667 34.0478 97.9504 33.3145C96.4167 31.7446 95.0558 29.9749 94.4305 27.888C93.7298 28.7065 92.9385 29.2343 91.8157 29.1206C91.3238 29.0709 89.4373 28.4836 89.9243 27.6227C90.0791 27.349 91.6131 27.6937 92.1271 27.6678C93.2003 27.6135 93.7054 27.6342 94.0981 26.6249C94.4251 25.7845 94.3095 25.4391 93.3006 25.2852C92.0196 25.0895 91.9829 25.8502 91.0702 26.2068C88.7527 27.1128 90.3352 23.5056 90.0044 22.4895C91.1436 22.1524 92.3462 21.9182 93.3536 21.2757C92.2375 21.4037 91.176 21.7765 90.0951 22.0479C90.1871 20.7176 92.8265 20.4345 93.8136 20.0166C92.7471 19.8748 91.7334 20.5768 90.6629 20.5326C89.6627 20.4914 88.2601 20.0711 87.2951 19.7511C86.3028 19.4222 85.5245 18.5054 84.5671 19.3034C83.9395 19.8265 83.0973 21.2516 82.8963 22.0101C83.5208 21.9201 84.9919 21.7986 85.1653 22.5074C85.3882 23.4177 83.5504 22.8879 82.9839 23.037C82.124 23.2635 82.3877 23.5133 82.0758 24.3629C81.7686 25.1996 81.2171 25.869 80.3447 26.2159C81.3145 26.7376 81.5815 26.7282 81.386 27.6934C81.1938 28.6424 81.3207 29.7086 81.4146 30.7648C81.9916 30.5286 82.6133 30.4524 83.2327 30.3905C83.3534 31.1566 82.1494 31.4808 81.5293 31.5256C81.8549 32.534 81.867 32.5022 82.9807 32.4992C83.6046 32.4973 84.2304 32.4615 84.8527 32.4314C86.1198 32.3698 87.3494 32.1437 88.5991 31.943C89.0761 31.8661 89.7517 31.6057 90.2265 31.658C91.097 31.7535 90.9277 31.8476 90.7839 32.5892C90.5891 33.5946 90.8086 34.3555 91.0611 35.4468C89.5714 34.939 90.7679 36.4927 91.4708 36.8125C92.8553 37.4421 94.5498 38.1161 96.0895 38.2ZM14.6196 98.9632C15.6741 99.4893 16.6703 99.985 17.6309 100.658C18.5869 101.328 19.6064 102.454 20.8164 102.67C22.2638 102.929 22.6122 102.178 22.9704 101.069C23.3728 99.8218 23.7413 99.2556 24.8853 98.5714C26.9099 97.3607 29.2814 96.563 31.4939 95.6915C32.3404 95.3584 32.404 95.4221 32.1536 94.5646C32.0024 94.0469 31.8178 93.5383 31.6196 93.0355C31.2534 92.1076 30.8521 91.1249 30.2392 90.3153C26.7307 92.6187 22.5462 95.2887 18.2272 95.8425C16.4734 96.0677 14.7451 96.4622 13.025 96.6117C12.1734 96.6858 11.4755 96.9014 10.7253 97.2675C9.88531 97.6774 8.49581 97.8219 7.89082 98.4959C10.1619 98.4806 12.3741 98.7704 14.6196 98.9632ZM100.665 101.982C99.9617 102.272 100.911 103.933 101.114 104.625C101.419 105.664 101.707 106.708 102.015 107.746C102.665 109.945 103.279 112.153 103.896 114.36C107.965 112.152 112.32 110.888 116.839 109.832C121.342 108.779 125.941 108.03 130.542 107.309C133.056 106.915 135.693 106.377 138.021 105.353C139.468 104.716 139.185 104.129 139.161 102.718C139.139 101.395 138.931 100.046 138.728 98.7348C138.345 96.2584 137.94 93.5585 136.94 91.2318C135.965 88.9647 134.661 86.7848 133.407 84.6495C131.919 82.1156 130.652 79.3871 128.711 77.1376C126.687 74.7933 124.516 72.6669 122.322 70.4845C121.008 72.9756 119.134 75.9969 116.711 77.5651C114.045 79.2899 109.852 80.1767 106.821 78.733C103.768 77.2789 101.963 74.2962 100.062 71.6972C98.2299 69.1922 96.638 66.4826 93.3909 65.5889C89.9568 64.6435 86.341 65.9302 82.9928 66.7364C79.1753 67.6555 75.44 68.9742 71.7295 70.2199C65.2877 72.3829 58.8969 74.3624 52.6179 76.9401C44.8896 80.1126 37.151 83.2602 29.6815 86.9743C31.2974 89.2849 32.5502 91.3904 33.4629 94.0481C34.1737 96.1173 34.6079 98.3084 34.7741 100.546C35.6436 99.6811 36.3078 98.6523 37.1853 97.7768C38.178 96.7862 39.3434 96.0239 40.5111 95.2475C42.6251 93.8417 44.7917 92.5689 47.1233 91.4999C52.4158 89.0731 58.0398 87.4016 63.6354 85.6719C64.9031 85.2801 66.3952 84.8248 67.7092 84.6078C68.8256 84.4236 69.8174 84.0999 70.9539 83.8312C73.5312 83.2223 76.1372 82.6636 78.7369 82.2225C83.7316 81.375 88.8283 80.4719 93.8925 79.8861C97.3263 79.4889 100.91 78.8447 104.438 79.1888C105.034 79.247 105.618 79.3646 106.218 79.3461C106.386 79.3408 106.585 79.0932 106.758 79.1102C107.091 79.1432 107.448 79.5158 107.788 79.627C108.556 79.8779 109.671 79.7221 110.089 80.3542C110.424 80.8604 110.301 81.2613 109.802 81.5949C110.403 82.3572 111.577 83.0596 112.382 83.6591C113.105 84.1979 113.787 84.7777 114.517 85.2972C115.3 85.8553 116.249 86.382 117.07 86.9515C118.14 87.6943 119.054 88.6459 120.065 89.4792C121.88 90.9748 123.701 92.2775 125.613 93.6795C126.642 94.4345 127.624 95.1455 128.743 95.7633C129.354 96.1011 130.741 97.0264 130.017 97.8666C129.295 98.705 127.847 97.4654 127.058 97.3762C126.15 97.2733 124.926 97.8402 124.021 97.9733C121.625 98.3253 119.221 98.6348 116.824 99.0152C114.088 99.4493 111.381 100.035 108.632 100.396C107.212 100.582 105.793 100.762 104.366 100.891C103.63 100.957 102.589 100.857 101.898 101.092C101.374 100.94 101.146 101.089 101.214 101.538C101.086 101.748 100.903 101.896 100.665 101.982ZM24.851 39.3755C26.348 39.3659 27.8329 39.4522 29.3315 39.4393C29.9084 39.4342 30.4051 39.5508 30.6386 39.1524C30.9239 38.6655 30.7924 37.3938 30.8412 36.8364C29.0911 36.9766 27.4853 37.02 25.7383 36.867C23.8671 36.7033 22.0509 36.1695 20.1727 36.0539C20.573 36.2057 21.0311 37.0321 20.7701 37.4342C20.5102 37.8344 20.0857 37.473 19.6742 37.2918C18.0853 36.5921 16.762 35.5583 14.9771 36.0104C16.6203 36.8578 18.1797 38.2168 19.8958 38.7229C21.5141 39.2 23.1465 39.3627 24.851 39.3755ZM136.03 11.8221C136.759 11.9581 138.18 12.6852 138.834 12.3189C139.632 11.8715 139.464 10.0572 139.494 9.351C139.583 7.18064 139.748 4.19422 138.041 2.43493C137.731 4.52039 138.4 6.70111 138.353 8.8098C138.317 10.3921 137.719 9.52803 137.507 8.40808C137.314 7.38347 137.335 6.37277 137.071 5.35342C136.587 6.17887 136.474 7.29912 136.133 8.21048C135.702 9.35971 135.093 10.4022 134.478 11.4675C134.997 11.5803 135.514 11.6994 136.03 11.8221ZM31.959 40.3402C31.95 40.9479 31.8634 41.5191 32.6242 41.5749C33.6314 41.6486 33.301 40.6225 33.2371 39.9749C32.875 40.0239 32.0449 39.923 31.959 40.3402ZM135.609 12.8138C134.978 12.7357 134.882 12.593 134.481 13.0344C134.227 13.3144 134.202 13.8226 134.423 13.999C135.38 14.7645 135.531 13.2434 135.609 12.8138ZM136.2 14.2229C136.691 14.3195 137.172 14.5811 137.449 14.0938C137.854 13.3793 136.885 13.3196 136.355 13.1074C136.303 13.4792 136.252 13.8511 136.2 14.2229ZM105.315 81.4518C99.8803 81.3234 94.5266 82.1749 89.1923 83.1121C84.474 83.941 79.7904 84.6318 75.1757 85.6721C65.8759 87.7687 56.5604 90.1148 47.9283 94.1504C45.8312 95.1307 43.737 96.1106 41.8039 97.303C40.765 97.9439 39.7068 98.5775 38.7231 99.3002C38.182 99.6976 37.6221 100.09 37.1149 100.525C36.6502 100.924 36.3865 101.475 35.9691 101.865C35.7726 102.049 34.926 102.728 34.675 102.805C34.1357 102.969 34.3493 102.982 33.804 102.609C32.6644 101.83 32.4359 100.792 32.0924 99.5427C31.8506 98.6634 32.0362 98.372 31.2419 98.402C30.8378 98.4173 30.2294 98.828 29.8549 98.9834C28.6451 99.4856 27.3379 99.8857 26.1769 100.485C25.2383 100.969 24.4872 101.592 24.0851 102.551C23.6104 103.683 23.3344 104.608 21.894 104.735C19.3246 104.961 17.8483 102.4 15.6512 101.538C13.3014 100.616 10.3025 100.797 7.8215 100.768C6.91788 100.757 5.93384 100.844 5.07198 100.965C3.85411 101.138 2.41328 101.799 1.14926 101.378C-0.305469 100.895 -0.283581 98.8281 0.680302 97.9287C1.68815 96.9886 3.18357 96.8597 4.47263 96.5476C7.07855 95.9169 9.44873 94.4791 12.1088 94.0375C14.7547 93.5982 17.5582 93.5027 20.1377 92.7022C21.4522 92.294 22.7293 91.9757 23.9783 91.4017C25.5344 90.6863 27.2104 90.221 28.7474 89.5179C28.2185 88.5889 28.0753 87.7266 28.043 86.6857C28.0216 85.9911 27.9086 85.9906 28.3909 85.6995C28.4865 85.749 28.5819 85.7984 28.6776 85.8482C28.9806 86.0634 29.1964 85.9651 29.3257 85.5531C31.4589 84.2592 33.4307 82.8692 35.707 81.7453C39.5249 79.8602 43.5665 78.3375 47.3832 76.5418C54.6346 73.1306 62.711 71.1623 70.3395 68.6633C74.9541 67.1515 79.6793 65.9131 84.4077 64.7981C85.2365 64.6026 86.0627 64.4408 86.9053 64.3111C88.3325 64.0914 87.995 64.0782 88.7149 62.9805C89.6385 61.5718 91.1047 60.0689 92.5928 59.1961C93.5106 58.6577 93.9021 58.7385 93.8733 57.5608C93.8516 56.6609 93.6046 56.6698 92.8686 56.0673C92.0361 55.3856 91.2629 54.6294 90.5599 53.8255C89.7574 52.9083 89.3981 51.8685 88.7268 50.9257C87.9152 49.7861 85.4052 49.9795 84.0003 49.781C81.7997 49.4704 79.5626 49.2482 77.395 48.7684C73.0175 47.7996 68.6172 47.4608 64.1852 46.7835C59.7301 46.1026 55.2762 45.4818 50.8207 44.865C49.2213 44.6436 47.6013 44.4533 46.0106 44.1789C43.7837 43.7945 41.4403 43.7556 39.181 43.3961C38.0178 43.211 36.5931 42.5541 35.423 42.6101C34.1671 42.6705 35.2901 42.6562 34.4641 43.0881C34.0933 43.282 33.6644 43.4555 33.2371 43.4779C32.5641 43.5132 31.8858 43.225 31.4741 42.7112C30.7877 41.8549 31.1186 41.1987 29.72 41.0907C28.7992 41.0197 27.7247 41.3749 26.7891 41.4216C25.8724 41.4676 24.9191 41.6005 24.002 41.5736C22.168 41.5194 19.9823 41.3582 18.3168 40.5744C16.5518 39.7438 14.9768 38.6357 13.1201 37.9295C12.1884 37.5748 10.8628 37.4244 10.2383 36.5672C9.71673 35.8517 9.55556 34.3963 10.355 33.8094C11.5815 32.9093 13.9594 34.2714 15.3164 33.9312C16.0103 33.7573 15.4376 33.5478 15.9623 33.3054C16.2874 33.1551 16.2386 33.1326 16.6243 33.0783C17.5754 32.9435 19.1331 33.6096 20.1 33.7679C22.008 34.0796 23.8994 34.5556 25.8057 34.8471C26.8942 35.0137 28.0009 35.0554 29.0918 35.2324C30.0419 35.3867 30.8227 35.7588 31.5121 34.9959C31.8028 34.674 31.714 34.3423 32.18 34.1744C32.5979 34.0241 33.7983 34.2398 34.2021 34.3946C34.6431 34.5637 34.7417 34.8074 35.0965 35.0001C35.1054 35.3648 35.2587 35.474 35.5566 35.3273C35.8339 35.3064 36.1103 35.3212 36.3854 35.3715C38.807 35.3816 41.2172 34.6303 43.4197 33.743C47.0695 32.2729 51.6012 28.111 55.7875 30.3748C56.8175 30.9317 57.4935 31.8605 58.4964 32.464C59.3872 32.9997 60.5265 33.4797 61.5282 33.7818C63.5299 34.3857 65.5197 34.3101 67.5026 33.6849C69.9204 32.9223 71.8676 32.1237 74.4733 32.2113C76.8876 32.2924 78.8143 33.959 81.179 34.0255C80.6013 33.0976 80.4943 32.0318 80.4332 30.9793C80.3934 30.2909 80.7778 28.489 80.3612 27.9318C79.9014 27.3164 76.3105 27.0675 78.3132 25.261C78.9687 24.6693 80.1787 24.8836 80.8565 24.2303C81.5408 23.5712 81.5542 22.5402 81.9191 21.7172C82.332 20.7859 83.0127 20.0167 83.7106 19.2736C84.006 18.959 84.2055 18.7593 84.3738 18.3811C84.5691 17.9422 84.439 17.5714 84.751 17.1089C85.8045 15.5479 87.6422 16.0914 89.2415 16.2993C90.211 16.4255 91.3853 16.3052 92.3263 16.5698C93.0825 16.7825 94.0661 17.4272 94.6813 17.9005C96.0368 18.9427 96.3518 20.8662 96.4563 22.4423C96.5175 23.3649 96.3378 24.2344 96.323 25.1538C96.3074 26.1161 95.8896 26.5522 95.1383 27.1905C95.1243 27.0129 95.0375 26.8937 94.8775 26.833C94.5503 27.2356 94.6342 27.3927 95.1294 27.3046C95.1482 27.5453 95.2342 27.7615 95.3869 27.9537C95.7963 28.4082 96.1489 28.9106 96.5475 29.3741C97.4196 30.3876 98.437 31.2672 99.1081 32.4174C99.8117 31.5988 100.707 31.4645 101.547 30.8999C102.363 30.3506 101.753 30.1871 102.056 29.3931C102.178 29.075 102.497 29.0188 102.609 28.7725C102.715 28.539 102.586 28.3916 102.651 28.135C102.978 26.8611 102.842 26.0719 103.86 25.0732C105.221 23.7376 106.898 23.3844 108.769 23.1309C110.635 22.8777 111.961 22.7875 113.62 22.0501C114.196 21.7942 114.74 21.6775 115.287 21.3872C116.026 20.9946 116.715 20.5805 117.357 20.0507C118.85 18.8196 119.778 17.1042 120.985 15.6247C121.951 14.4408 123.116 12.9249 124.86 13.2376C126.844 13.5933 128.592 14.7988 130.703 14.1489C131.487 13.9078 131.402 14.056 131.713 13.2965C131.816 13.0436 131.883 12.7888 131.983 12.5402C132.36 11.6096 133.081 11.493 133.528 10.7354C134.584 8.94668 135.162 6.71605 135.763 4.75298C136.042 3.84137 136.583 3.05069 136.913 2.17657C137.051 1.81105 136.988 0.183103 137.416 0.0403175C138.797 -0.419803 139.915 3.19609 140.166 3.87998C140.824 5.66715 141.404 7.68402 141.144 9.5975C141.037 10.386 140.952 11.2994 140.741 12.0714C140.55 12.7723 140.508 12.7262 140.618 13.3615C140.729 14.0075 140.862 14.395 140.766 15.0722C140.74 15.2613 140.653 15.9601 140.572 16.0569C140.194 16.5069 140.142 16.1923 139.671 16.3722C138.91 16.6632 138.722 16.9132 138.183 17.5956C136.834 19.3014 135.427 21.0124 133.971 22.6319C131.415 25.4728 128.727 28.0194 125.859 30.5461C123.043 33.0259 120.1 35.5418 116.904 37.5674C116.127 38.0599 114.851 38.4917 114.225 39.1376C113.541 39.8451 114.579 40.1519 115.281 40.6538C116.675 41.6504 118.109 42.671 119.325 43.8332C121.917 46.3105 123.398 49.9607 124.306 53.2755C124.779 55.0005 124.876 56.978 125.055 58.7645C125.265 60.8601 125.005 63.1534 124.344 65.1469C124.093 65.903 123.798 66.6436 123.555 67.4028C123.443 67.7524 122.893 68.8381 123.042 69.2415C123.289 69.9081 124.909 70.7179 125.475 71.1812C126.248 71.8149 127.04 72.4697 127.687 73.2248C130.444 76.437 132.699 79.808 134.724 83.5034C136.783 87.2621 138.727 90.6535 139.54 94.8779C139.752 95.9819 139.941 97.0868 140.164 98.189C140.404 99.3749 140.172 101.086 140.653 102.169C140.949 102.839 141.505 103.05 141.279 103.977C141.083 104.778 140.089 106.201 139.548 106.832C138.317 108.268 136.071 108.834 134.297 109.355C132.144 109.987 129.841 110.278 127.624 110.638C119.638 111.933 111.811 113.347 104.419 116.667C104.668 117.029 104.869 117.812 104.364 118.062C103.693 118.393 103.364 117.409 103.134 116.974C102.462 115.707 102.262 114.069 101.861 112.682C100.883 109.296 100.14 105.875 99.3438 102.453C96.6254 103.025 93.8729 103.329 91.1687 103.86C89.9213 104.105 88.6573 104.128 87.4012 104.282C86.0525 104.448 85.9661 104.872 86.0726 106.159C86.3073 108.997 87.4404 111.72 88.0868 114.48C88.4006 115.819 88.9494 117.093 89.2479 118.425C89.3449 118.859 89.2396 120.027 89.5455 120.35C89.5323 120.337 90.5754 120.544 90.74 120.585C90.6515 118.909 90.8476 117.264 90.7639 115.59C90.6777 113.862 90.4413 111.595 90.8278 109.92C91.1792 108.398 92.5201 106.788 94.0001 106.146C95.2894 105.586 97.8483 104.688 99.2403 105.518C99.4849 105.664 100.074 106.116 99.9367 106.466C99.7509 106.94 97.6905 107.303 97.2721 107.45C95.6341 108.023 93.902 109.029 92.9845 110.487C92.1589 111.799 92.4888 113.827 92.5164 115.332C92.5319 116.187 92.6424 116.981 92.5391 117.833C92.3926 119.039 92.3162 119.476 92.8093 120.517C93.3871 121.736 93.0301 123.518 91.2994 123.08C90.2642 122.817 90.2228 122.253 89.5995 121.638C89.3638 121.406 89.0986 121.509 88.8676 121.215C88.5581 120.822 88.5596 119.952 88.4029 119.456C87.9016 117.868 87.1918 116.323 86.6615 114.725C85.9485 112.577 85.3649 110.401 84.8537 108.202C84.4565 106.491 84.0258 104.759 84.8516 103.095C85.5844 101.618 87.3795 101.727 88.868 101.674C92.3149 101.551 95.8775 100.804 99.3946 100.624C99.6476 100.611 100.176 100.697 100.403 100.592C100.716 100.446 100.834 100.023 101.24 99.7523C102.015 99.2349 103.548 99.0551 104.444 98.8963C106.476 98.5356 108.497 98.2427 110.516 97.8666C112.838 97.4341 115.138 96.9173 117.462 96.5241C119.687 96.1476 121.935 96.0767 124.187 95.8208C120.614 93.5168 117.468 90.7082 114.031 88.212C112.437 87.0545 110.96 85.9159 109.53 84.5775C108.934 84.0203 108.345 83.4784 107.804 82.871C107.518 82.549 107.264 81.9338 106.9 81.7092C106.442 81.4265 105.919 81.5021 105.315 81.4518Z" fill="black"/>
<path fill-rule="evenodd" clip-rule="evenodd" d="M92.2028 16.5865C91.0211 16.4835 89.6669 16.4761 88.52 16.2132C89.5332 16.3007 91.2753 16.2438 92.2028 16.5865Z" fill="black"/>
<path fill-rule="evenodd" clip-rule="evenodd" d="M27.2561 35.0505C26.7532 35.0063 26.2503 34.9619 25.7478 34.9176C26.2611 34.8429 26.7628 34.8993 27.2561 35.0505Z" fill="black"/>
<path fill-rule="evenodd" clip-rule="evenodd" d="M58.218 45.9922C58.554 46.0212 58.8898 46.0499 59.2236 46.0792C58.8869 46.0504 58.5525 46.0213 58.218 45.9922Z" fill="black"/>
<path fill-rule="evenodd" clip-rule="evenodd" d="M92.4498 115.442C92.4646 115.049 92.4793 114.656 92.4941 114.264C92.4794 114.657 92.4646 115.05 92.4498 115.442Z" fill="black"/>
<path fill-rule="evenodd" clip-rule="evenodd" d="M90.6057 118.49C90.5998 118.771 90.5941 119.052 90.588 119.332C90.5939 119.051 90.5998 118.77 90.6057 118.49Z" fill="black"/>
<path fill-rule="evenodd" clip-rule="evenodd" d="M98.1176 105.338C97.7797 105.338 97.4419 105.339 97.1042 105.339C97.4421 105.339 97.7799 105.338 98.1176 105.338Z" fill="black"/>
<path fill-rule="evenodd" clip-rule="evenodd" d="M50.0508 44.7573C50.274 44.7856 50.4973 44.8139 50.7189 44.8423C50.4948 44.8139 50.2729 44.7856 50.0508 44.7573Z" fill="black"/>
<path fill-rule="evenodd" clip-rule="evenodd" d="M87.8495 16.157C87.5698 16.1336 87.2904 16.1102 87.0111 16.087C87.2906 16.1102 87.57 16.1336 87.8495 16.157Z" fill="black"/>
<path fill-rule="evenodd" clip-rule="evenodd" d="M90.655 114.103C90.6471 114.384 90.6389 114.665 90.631 114.945C90.6389 114.664 90.6471 114.383 90.655 114.103Z" fill="black"/>
<path fill-rule="evenodd" clip-rule="evenodd" d="M48.709 44.6488C48.9329 44.6714 49.1568 44.6941 49.3788 44.7161C49.154 44.6934 48.9316 44.671 48.709 44.6488Z" fill="black"/>
<path fill-rule="evenodd" clip-rule="evenodd" d="M52.2137 45.1268C52.438 45.1477 52.6619 45.1685 52.8838 45.189C52.6589 45.1682 52.4363 45.1475 52.2137 45.1268Z" fill="black"/>
<path fill-rule="evenodd" clip-rule="evenodd" d="M88.8132 101.658C88.5315 101.66 88.2499 101.662 87.9683 101.663C88.2501 101.662 88.5317 101.66 88.8132 101.658Z" fill="black"/>
<path fill-rule="evenodd" clip-rule="evenodd" d="M79.0505 49.1666C79.2188 49.1804 79.387 49.194 79.5536 49.2081C79.3847 49.1945 79.2176 49.1805 79.0505 49.1666Z" fill="black"/>
<path fill-rule="evenodd" clip-rule="evenodd" d="M90.7654 116.984C90.746 117.207 90.7263 117.431 90.7072 117.654C90.7267 117.43 90.746 117.207 90.7654 116.984Z" fill="black"/>
<path fill-rule="evenodd" clip-rule="evenodd" d="M105.268 81.5211C105.436 81.5352 105.604 81.549 105.771 81.5635C105.602 81.5497 105.435 81.5354 105.268 81.5211Z" fill="black"/>
<path fill-rule="evenodd" clip-rule="evenodd" d="M53.3839 29.8223C53.1021 29.8247 52.8205 29.8269 52.5388 29.829C52.8206 29.8269 53.1023 29.8247 53.3839 29.8223Z" fill="black"/>
<path fill-rule="evenodd" clip-rule="evenodd" d="M20.4441 33.7696C20.2225 33.7278 20.0011 33.6863 19.7795 33.6446C20.0009 33.6863 20.2225 33.7278 20.4441 33.7696Z" fill="black"/>
<path fill-rule="evenodd" clip-rule="evenodd" d="M24.2684 34.4555L23.6062 34.3035L24.2684 34.4555Z" fill="black"/>
<path fill-rule="evenodd" clip-rule="evenodd" d="M15.3574 34.0017C15.136 33.9588 14.9144 33.9163 14.693 33.8734C14.9142 33.9163 15.136 33.9588 15.3574 34.0017Z" fill="black"/>
<path fill-rule="evenodd" clip-rule="evenodd" d="M102.907 81.4756C103.019 81.4901 103.131 81.5049 103.241 81.5189C103.129 81.5044 103.018 81.4899 102.907 81.4756Z" fill="black"/>
<path fill-rule="evenodd" clip-rule="evenodd" d="M79.7406 27.7664C79.8521 27.7836 79.9638 27.8007 80.0739 27.8181C79.9618 27.8006 79.8513 27.7836 79.7406 27.7664Z" fill="black"/>
<path fill-rule="evenodd" clip-rule="evenodd" d="M117.463 96.5549C117.237 96.5682 117.01 96.5816 116.784 96.5949C117.011 96.5816 117.237 96.5682 117.463 96.5549Z" fill="black"/>
<path fill-rule="evenodd" clip-rule="evenodd" d="M124.884 62.8861C124.899 62.7184 124.913 62.5506 124.928 62.3832C124.914 62.5511 124.899 62.7187 124.884 62.8861Z" fill="black"/>
<path fill-rule="evenodd" clip-rule="evenodd" d="M84.9019 49.8466C85.0142 49.8562 85.1265 49.8656 85.2372 49.8752C85.1243 49.8655 85.0132 49.856 84.9019 49.8466Z" fill="black"/>
<path fill-rule="evenodd" clip-rule="evenodd" d="M39.1846 43.4854C39.2971 43.493 39.4093 43.5004 39.5202 43.5082C39.4075 43.5008 39.2961 43.493 39.1846 43.4854Z" fill="black"/>
<path fill-rule="evenodd" clip-rule="evenodd" d="M21.6738 39.0182C22.1928 39.0639 22.6765 39.0819 23.1744 39.2404C22.6866 39.2032 22.1096 39.2596 21.6738 39.0182Z" fill="black"/>
<path fill-rule="evenodd" clip-rule="evenodd" d="M27.0563 39.2665C27.4188 39.1615 28.0245 39.2059 28.3987 39.3646C27.9513 39.3318 27.5036 39.2991 27.0563 39.2665Z" fill="black"/>
<path fill-rule="evenodd" clip-rule="evenodd" d="M96.0477 38.2713C96.4389 38.3041 96.8302 38.3373 97.2212 38.3701C96.8193 38.4658 96.4253 38.4685 96.0477 38.2713Z" fill="black"/>
<path fill-rule="evenodd" clip-rule="evenodd" d="M135.603 12.7534C135.324 12.718 135.045 12.6826 134.768 12.6471C135.048 12.6825 135.326 12.718 135.603 12.7534Z" fill="black"/>
<path fill-rule="evenodd" clip-rule="evenodd" d="M13.5648 98.8882C13.9169 98.7235 14.2447 98.8381 14.5706 98.9745C14.2351 98.9456 13.9001 98.917 13.5648 98.8882Z" fill="black"/>
<path fill-rule="evenodd" clip-rule="evenodd" d="M34.5419 39.2761C34.5365 39.5574 34.5314 39.8388 34.5259 40.1191C34.5313 39.8375 34.5366 39.5567 34.5419 39.2761Z" fill="black"/>
<path fill-rule="evenodd" clip-rule="evenodd" d="M24.0115 39.3218C24.2929 39.321 24.5747 39.3202 24.8562 39.3193C24.5746 39.3202 24.2929 39.321 24.0115 39.3218Z" fill="black"/>
<path fill-rule="evenodd" clip-rule="evenodd" d="M96.224 42.0472C95.9993 42.0327 95.7747 42.0186 95.5522 42.0038C95.7775 42.0181 96.0008 42.0325 96.224 42.0472Z" fill="black"/>
<path fill-rule="evenodd" clip-rule="evenodd" d="M34.0093 95.4675C34.0089 95.7492 34.0083 96.0306 34.0079 96.3118C34.0083 96.03 34.0088 95.7488 34.0093 95.4675Z" fill="black"/>
<path fill-rule="evenodd" clip-rule="evenodd" d="M82.5234 48.0777C82.8004 48.129 83.0776 48.18 83.3544 48.2313C83.0771 48.18 82.8002 48.1289 82.5234 48.0777Z" fill="black"/>
<path fill-rule="evenodd" clip-rule="evenodd" d="M25.2415 36.8465C25.0168 36.8342 24.7918 36.8221 24.5691 36.8107C24.7945 36.8231 25.0181 36.8347 25.2415 36.8465Z" fill="black"/>
<path fill-rule="evenodd" clip-rule="evenodd" d="M80.6964 47.7283C80.9735 47.7791 81.2503 47.8299 81.5275 47.8805C81.244 47.8674 80.9434 47.9566 80.6964 47.7283Z" fill="black"/>
<path fill-rule="evenodd" clip-rule="evenodd" d="M27.9228 37.0842C27.754 37.0751 27.5855 37.0661 27.4186 37.0568C27.5877 37.0659 27.7554 37.075 27.9228 37.0842Z" fill="black"/>
<path fill-rule="evenodd" clip-rule="evenodd" d="M76.228 46.6812C76.5048 46.7332 76.7817 46.7855 77.0588 46.8375C76.7815 46.7853 76.5048 46.7332 76.228 46.6812Z" fill="black"/>
<path fill-rule="evenodd" clip-rule="evenodd" d="M136.147 14.2611C136.424 14.3141 136.701 14.3671 136.978 14.4201C136.701 14.3671 136.424 14.3141 136.147 14.2611Z" fill="black"/>
<path fill-rule="evenodd" clip-rule="evenodd" d="M66.0746 44.9855C66.3535 45.0131 66.6328 45.0408 66.9117 45.0682C66.6326 45.0407 66.3535 45.0131 66.0746 44.9855Z" fill="black"/>
<path fill-rule="evenodd" clip-rule="evenodd" d="M136.017 11.8878C136.294 11.9393 136.571 11.9905 136.848 12.0419C136.571 11.9905 136.294 11.9393 136.017 11.8878Z" fill="black"/>
<path fill-rule="evenodd" clip-rule="evenodd" d="M34.5483 40.496C34.8283 40.515 35.1082 40.5338 35.3879 40.5527C35.0976 40.7004 34.8187 40.6657 34.5483 40.496Z" fill="black"/>
<path fill-rule="evenodd" clip-rule="evenodd" d="M89.9895 23.5234C90.0105 23.2998 90.0314 23.076 90.0521 22.8533C90.0312 23.0774 90.0104 23.3005 89.9895 23.5234Z" fill="black"/>
<path fill-rule="evenodd" clip-rule="evenodd" d="M89.9165 24.3614C89.9372 24.1376 89.9577 23.914 89.9786 23.6913C89.9579 23.9154 89.9372 24.1383 89.9165 24.3614Z" fill="black"/>
<path fill-rule="evenodd" clip-rule="evenodd" d="M90.8189 65.2199C90.6503 65.209 90.4817 65.198 90.3152 65.1873C90.4844 65.1982 90.6517 65.209 90.8189 65.2199Z" fill="black"/>
<path fill-rule="evenodd" clip-rule="evenodd" d="M105.466 33.997C105.44 34.2203 105.415 34.4434 105.389 34.6658C105.415 34.4424 105.44 34.2196 105.466 33.997Z" fill="black"/>
<path fill-rule="evenodd" clip-rule="evenodd" d="M109.071 76.6593C109.352 76.6562 109.634 76.653 109.916 76.65C109.634 76.653 109.352 76.6562 109.071 76.6593Z" fill="black"/>
<path fill-rule="evenodd" clip-rule="evenodd" d="M90.212 31.6194C90.4477 31.4978 90.6717 31.5104 90.8825 31.6773C90.6587 31.6581 90.4355 31.6388 90.212 31.6194Z" fill="black"/>
<path fill-rule="evenodd" clip-rule="evenodd" d="M92.1117 29.2094C92.0001 29.1919 91.8886 29.1742 91.7786 29.1569C91.8906 29.1746 92.0011 29.1919 92.1117 29.2094Z" fill="black"/>
<path fill-rule="evenodd" clip-rule="evenodd" d="M93.1913 63.1988C93.4125 63.2441 93.6338 63.2894 93.855 63.3344C93.6336 63.2892 93.4125 63.2441 93.1913 63.1988Z" fill="black"/>
<path fill-rule="evenodd" clip-rule="evenodd" d="M85.5529 81.015C85.7783 81.0098 86.0039 81.0047 86.2297 80.9995C86.0039 81.0046 85.7785 81.01 85.5529 81.015Z" fill="black"/>
<path fill-rule="evenodd" clip-rule="evenodd" d="M80.7426 81.9471C80.9683 81.9407 81.1938 81.9341 81.4197 81.9279C81.1939 81.9341 80.9685 81.9407 80.7426 81.9471Z" fill="black"/>
<path fill-rule="evenodd" clip-rule="evenodd" d="M78.6866 82.2812C78.9128 82.2699 79.1392 82.2588 79.3652 82.2475L78.6866 82.2812Z" fill="black"/>
<path fill-rule="evenodd" clip-rule="evenodd" d="M76.6317 82.6057L77.3097 82.5766C77.0836 82.5864 76.8575 82.5959 76.6317 82.6057Z" fill="black"/>
<path fill-rule="evenodd" clip-rule="evenodd" d="M119.98 98.6722C119.811 98.6644 119.642 98.6564 119.475 98.6484C119.645 98.6565 119.812 98.6644 119.98 98.6722Z" fill="black"/>
<path fill-rule="evenodd" clip-rule="evenodd" d="M85.5107 48.6792C85.7321 48.7238 85.9534 48.7687 86.1745 48.8135C85.9534 48.7687 85.732 48.7238 85.5107 48.6792Z" fill="black"/>
<path fill-rule="evenodd" clip-rule="evenodd" d="M127.179 16.3854C127.067 16.3791 126.954 16.3728 126.843 16.3666C126.956 16.3732 127.067 16.3792 127.179 16.3854Z" fill="black"/>
<path fill-rule="evenodd" clip-rule="evenodd" d="M27.0836 37.0237C26.9717 37.0107 26.8596 36.9981 26.7493 36.9855C26.8617 36.9981 26.9725 37.0109 27.0836 37.0237Z" fill="black"/>
<path fill-rule="evenodd" clip-rule="evenodd" d="M74.4136 46.1872C74.6348 46.2328 74.8561 46.2782 75.0771 46.3238C74.8559 46.2782 74.6348 46.2328 74.4136 46.1872Z" fill="black"/>
<path fill-rule="evenodd" clip-rule="evenodd" d="M49.1138 41.9539C49.3353 41.995 49.5569 42.0361 49.7785 42.0771C49.5569 42.0361 49.3352 41.9948 49.1138 41.9539Z" fill="black"/>
<path fill-rule="evenodd" clip-rule="evenodd" d="M31.9182 40.3976C31.9175 40.5666 31.9169 40.7357 31.916 40.904C31.9169 40.7347 31.9175 40.5661 31.9182 40.3976Z" fill="black"/>
<path fill-rule="evenodd" clip-rule="evenodd" d="M29.5715 39.4721C29.7973 39.4653 30.0229 39.4586 30.2489 39.4517C30.0231 39.4588 29.7973 39.4653 29.5715 39.4721Z" fill="black"/>
<path fill-rule="evenodd" clip-rule="evenodd" d="M35.7274 40.5332C35.9599 40.4381 36.1882 40.3976 36.3982 40.5865C36.1746 40.5687 35.9508 40.551 35.7274 40.5332Z" fill="black"/>
<path fill-rule="evenodd" clip-rule="evenodd" d="M113.216 54.1182C114.026 54.2432 114.409 54.4259 114.628 55.2113C114.73 55.5755 114.437 56.2606 114.535 56.4904C114.667 56.7954 114.863 56.6339 115.092 56.9231C115.929 57.9805 116.366 60.0859 114.732 60.8157C114.119 60.0702 114.332 59.2046 114.752 58.4343C113.869 58.2307 113.412 58.1999 113.139 57.3163C113.107 57.2105 113.04 55.9127 113.013 55.8846C112.831 55.6941 112.092 55.8864 111.839 55.7445C111.279 55.4302 111.015 54.3787 111.156 53.7871C111.35 52.9713 112.212 52.5546 112.868 52.097C110.765 52.1486 108.831 53.7367 106.728 53.843C106.143 53.8724 105.997 54.1327 105.794 53.473C105.614 52.8871 105.808 52.9631 106.205 52.6719C106.991 52.0948 108.198 51.7146 109.126 51.3855C110.475 50.9074 112.801 49.7876 114.261 50.4138C114.99 50.726 115.507 51.6841 115.283 52.4326C115.065 53.1628 113.807 53.679 113.216 54.1182Z" fill="black"/>
<path fill-rule="evenodd" clip-rule="evenodd" d="M114.057 43.2457C114.659 44.1836 114.924 45.1744 114.273 46.1645C115.198 46.0888 116.229 45.9197 116.832 46.7574C117.704 47.968 116.802 48.3647 115.786 48.4337C114.97 48.4892 113.351 49.016 112.636 48.4658C111.46 47.5616 112.63 45.8499 113.083 44.9838C112.336 45.0073 110.451 45.2279 110.776 43.83C111.011 42.8224 113.324 43.0774 114.057 43.2457Z" fill="black"/>
<path fill-rule="evenodd" clip-rule="evenodd" d="M104.423 49.3215L103.694 50.1794C104.063 50.2618 104.564 49.9489 104.889 49.8172C104.734 49.652 104.578 49.4867 104.423 49.3215ZM103.316 48.1661C102.45 48.0446 101.515 49.1758 101.316 47.9117C101.199 47.1709 101.893 46.222 102.709 46.1081C104.131 45.9095 106.12 49.1353 106.476 50.2472C106.804 51.2719 106.454 51.1305 105.702 51.51C105.05 51.8386 104.203 52.6014 103.357 52.3704C102.584 52.1591 102.346 50.9205 102.349 50.275C102.354 49.28 102.953 48.9597 103.316 48.1661Z" fill="black"/>
<path fill-rule="evenodd" clip-rule="evenodd" d="M107.723 48.1622C107.854 48.5621 108.798 50.4321 107.96 50.4275C107.494 50.4252 106.615 47.7266 106.489 47.4181C106.317 46.9944 105.954 46.4103 106.018 45.9303C106.129 45.1004 106.082 45.3623 106.645 45.4527C107.741 45.629 108.647 47.2974 109.683 47.7206C109.254 46.1275 108.61 44.3813 109.051 42.7548C110.285 43.8953 110.339 46.2446 110.677 47.8052C110.78 48.2801 111.025 49.2531 110.505 49.5751C109.917 49.9393 108.12 48.4149 107.723 48.1622Z" fill="black"/>
<path fill-rule="evenodd" clip-rule="evenodd" d="M99.8474 51.5975C100.256 50.739 100.696 49.7344 99.1856 50.0522C99.4061 50.5674 99.6269 51.0823 99.8474 51.5975ZM99.358 48.0061C100.654 47.9031 101.391 49.6035 101.525 50.5919C101.632 51.3801 100.812 54.1312 99.7059 53.3008C99.2938 52.9914 99.0621 52.1456 98.7924 51.718C98.4229 51.1323 97.9059 50.5741 97.6255 49.9444C97.0319 48.6106 98.0962 48.0096 99.358 48.0061Z" fill="black"/>
<path fill-rule="evenodd" clip-rule="evenodd" d="M99.4157 48.0335C99.1338 48.0372 98.8519 48.0411 98.5703 48.0448C98.8521 48.0411 99.1341 48.0372 99.4157 48.0335Z" fill="black"/>
<path fill-rule="evenodd" clip-rule="evenodd" d="M114.182 43.335C113.961 43.2846 113.74 43.2339 113.52 43.1834C113.74 43.2339 113.961 43.2844 114.182 43.335Z" fill="black"/>
<path fill-rule="evenodd" clip-rule="evenodd" d="M115.958 46.1995C115.734 46.1793 115.511 46.1593 115.287 46.1389C115.524 46.0169 115.747 46.0392 115.958 46.1995Z" fill="black"/>
<path fill-rule="evenodd" clip-rule="evenodd" d="M84.95 24.2647C86.0417 25.0482 83.6255 27.9828 82.6682 25.6035C82.401 24.9395 82.4843 24.1148 83.189 24.287C83.5063 24.3644 83.5499 24.8429 83.9904 24.8609C84.4273 24.8787 84.6418 24.5034 84.95 24.2647Z" fill="black"/>
<path fill-rule="evenodd" clip-rule="evenodd" d="M91.2914 27.0149C91.3085 26.4281 92.4356 25.2625 93.0779 26.0329C93.7224 26.8058 91.7789 26.9967 91.2914 27.0149Z" fill="black"/>
</svg>
