<svg height="512" viewBox="0 0 60 60" width="512" xmlns="http://www.w3.org/2000/svg"><g id="Page-1" fill="none" fill-rule="evenodd"><g id="017---Sell-Stocks"><rect id="Rectangle" fill="#f44335" height="18" rx="4" width="36" x="23" y="41"/><path id="Path" d="m55 41h-3c2.209139 0 4 1.790861 4 4v10c0 2.209139-1.790861 4-4 4h3c2.209139 0 4-1.790861 4-4v-10c0-2.209139-1.790861-4-4-4z" fill="#c81e1e"/><path id="Path" d="m55 5v2h-54v-2c0-2.209139 1.790861-4 4-4h46c2.209139 0 4 1.790861 4 4z" fill="#00bcd4"/><path id="Path" d="m51 1h-3c2.209139 0 4 1.790861 4 4v2h3v-2c0-2.209139-1.790861-4-4-4z" fill="#00838f"/><path id="Path" d="m55 7v34h-28c-2.209139 0-4 1.790861-4 4v2h-18c-2.209139 0-4-1.790861-4-4v-36z" fill="#f5f5f5"/><path id="Path" d="m20 45v2h3v-2c0-2.209139 1.790861-4 4-4h-3c-2.209139 0-4 1.790861-4 4z" fill="#cfd8dc"/><path id="Rectangle" d="m52 7h3v34h-3z" fill="#cfd8dc"/><rect id="Rectangle" fill="#a4c400" height="4" rx="1" width="4" x="11" y="29"/><rect id="Rectangle" fill="#a4c400" height="4" rx="1" width="4" x="19" y="24"/><rect id="Rectangle" fill="#f44335" height="4" rx="1" width="4" x="27" y="27"/><rect id="Rectangle" fill="#a4c400" height="4" rx="1" width="4" x="35" y="22"/><rect id="Rectangle" fill="#f44335" height="4" rx="1" width="4" x="43" y="26"/><g fill="#000"><path id="Path" d="m30 49c-.4851707-.000473-.9000069-.3491365-.9839455-.8269912-.0839386-.4778548.1872399-.9470217.6432053-1.1128119.4559653-.1657902.9651545.0196329 1.2077402.4398031.2843876.4596821.882589.61017 1.3506397.3397768s.6365131-.8637835.3803603-1.3397768c-.7279453-1.2608382-2.2560751-1.8170246-3.6241605-1.3190692-1.3680854.4979555-2.1811672 1.9062958-1.9283301 3.3400638.252837 1.433768 1.4986001 2.4790424 2.9544906 2.4790054.4851707.000473.9000069.3491365.9839455.8269912.0839386.4778548-.1872399.9470217-.6432053 1.1128119-.4559653.1657902-.9651545-.0196329-1.2077402-.4398031-.2843876-.4596821-.882589-.61017-1.3506397-.3397768s-.6365131.8637835-.3803603 1.3397768c.7279453 1.2608382 2.2560751 1.8170246 3.6241605 1.3190692 1.3680854-.4979555 2.1811672-1.9062958 1.9283301-3.3400638-.252837-1.433768-1.4986001-2.4790424-2.9544906-2.4790054z"/><path id="Path" d="m39 47c.5522847 0 1-.4477153 1-1s-.4477153-1-1-1h-3c-.5522847 0-1 .4477153-1 1v8c0 .5522847.4477153 1 1 1h3c.5522847 0 1-.4477153 1-1s-.4477153-1-1-1h-2v-2h1c.5522847 0 1-.4477153 1-1s-.4477153-1-1-1h-1v-2z"/><path id="Path" d="m46 53h-2v-7c0-.5522847-.4477153-1-1-1s-1 .4477153-1 1v7c0 1.1045695.8954305 2 2 2h2c.5522847 0 1-.4477153 1-1s-.4477153-1-1-1z"/><path id="Path" d="m53 53h-2v-7c0-.5522847-.4477153-1-1-1s-1 .4477153-1 1v7c0 1.1045695.8954305 2 2 2h2c.5522847 0 1-.4477153 1-1s-.4477153-1-1-1z"/><path id="Shape" d="m12 34v4c0 .5522847.4477153 1 1 1s1-.4477153 1-1v-4c1.1045695 0 2-.8954305 2-2v-2c0-1.1045695-.8954305-2-2-2v-4c0-.5522847-.4477153-1-1-1s-1 .4477153-1 1v4c-1.1045695 0-2 .8954305-2 2v2c0 1.1045695.8954305 2 2 2zm0-4h2v2h-2z" fill-rule="nonzero"/><path id="Shape" d="m22 23v-4c0-.5522847-.4477153-1-1-1s-1 .4477153-1 1v4c-1.1045695 0-2 .8954305-2 2v2c0 1.1045695.8954305 2 2 2v4c0 .5522847.4477153 1 1 1s1-.4477153 1-1v-4c1.1045695 0 2-.8954305 2-2v-2c0-1.1045695-.8954305-2-2-2zm-2 4v-2h2v2z" fill-rule="nonzero"/><path id="Shape" d="m30 26v-4c0-.5522847-.4477153-1-1-1s-1 .4477153-1 1v4c-1.1045695 0-2 .8954305-2 2v2c0 1.1045695.8954305 2 2 2v4c0 .5522847.4477153 1 1 1s1-.4477153 1-1v-4c1.1045695 0 2-.8954305 2-2v-2c0-1.1045695-.8954305-2-2-2zm-2 4v-2h2v2z" fill-rule="nonzero"/><path id="Shape" d="m38 21v-4c0-.5522847-.4477153-1-1-1s-1 .4477153-1 1v4c-1.1045695 0-2 .8954305-2 2v2c0 1.1045695.8954305 2 2 2v4c0 .5522847.4477153 1 1 1s1-.4477153 1-1v-4c1.1045695 0 2-.8954305 2-2v-2c0-1.1045695-.8954305-2-2-2zm-2 4v-2h2v2z" fill-rule="nonzero"/><path id="Shape" d="m46 25v-4c0-.5522847-.4477153-1-1-1s-1 .4477153-1 1v4c-1.1045695 0-2 .8954305-2 2v2c0 1.1045695.8954305 2 2 2v4c0 .5522847.4477153 1 1 1s1-.4477153 1-1v-4c1.1045695 0 2-.8954305 2-2v-2c0-1.1045695-.8954305-2-2-2zm-2 4v-2h2v2z" fill-rule="nonzero"/><path id="Path" d="m11 19c.1811634.000064.3588994-.049384.514-.143l9.424-5.657 6.813 5.11c.7569981.5647167 1.8052133.5255855 2.518-.094l6.78-5.933 6.8 5.1c.6746228.4951481 1.5840321.5253294 2.29.076l2.419-1.637c.2958159-.200426.4622351-.5434432.436569-.8998403-.025666-.356397-.239518-.6720289-.561-.828-.3214819-.155971-.7017531-.1285857-.997569.0718403l-2.388 1.617-6.8-5.1c-.7569981-.5647167-1.8052133-.5255855-2.518.094l-6.78 5.933-6.812-5.11c-.6505316-.4879077-1.5317112-.5333701-2.229-.115l-9.424 5.655c-.3880984.2302726-.57388322.6919449-.4534651 1.1268532.1204182.4349084.5171988.735279.9684651.7331468z"/><path id="Shape" d="m5 48h17v7c.0033061 2.7600532 2.2399468 4.9966939 5 5h28c2.7600532-.0033061 4.9966939-2.2399468 5-5v-10c-.0029983-2.3751008-1.6735832-4.4215673-4-4.9v-35.1c-.0033061-2.76005315-2.2399468-4.99669388-5-5h-46c-2.76005315.00330612-4.99669388 2.23994685-5 5v38c.00330612 2.7600532 2.23994685 4.9966939 5 5zm0-2c-1.65685425 0-3-1.3431458-3-3v-35h52v32h-27c-1.071808.0032438-2.1136324.3541446-2.969 1h-16.031v-30c0-.5522847-.44771525-1-1-1s-1 .4477153-1 1v30c0 1.1045695.8954305 2 2 2h14.424c-.2789669.6298984-.4233799 1.311092-.424 2v1zm53-1v10c0 1.6568542-1.3431458 3-3 3h-28c-1.6568542 0-3-1.3431458-3-3v-10c0-1.6568542 1.3431458-3 3-3h28c1.6568542 0 3 1.3431458 3 3zm-53-43h46c1.6568542 0 3 1.34314575 3 3v1h-52v-1c0-1.65685425 1.34314575-3 3-3z" fill-rule="nonzero"/></g></g></g></svg>